<svg version="1.1" id="Layer_1" xmlns="http://www.w3.org/2000/svg" xmlns:xlink="http://www.w3.org/1999/xlink" x="0px" y="0px"
	 width="100%" viewBox="0 0 635 635" enable-background="new 0 0 635 635" xml:space="preserve">
<path fill="#FFFFFF" opacity="1.000000" stroke="none" 
	d="
M1.000000,395.000000 
	C1.000000,351.645782 1.000000,308.291534 1.468589,264.468658 
	C8.981114,263.974701 16.025051,263.949402 23.036942,264.396729 
	C23.004898,271.801758 23.004898,278.734192 23.004898,286.040283 
	C30.507273,286.040283 37.576149,286.040283 44.801758,286.040283 
	C44.801758,293.483795 44.801758,300.543671 44.801758,308.162598 
	C37.427387,308.162598 30.231695,308.162598 23.348433,308.162598 
	C23.348433,315.457581 23.348433,322.190887 23.348433,328.931000 
	C38.156506,328.931000 52.616207,328.931000 67.040634,329.402832 
	C67.028885,344.272766 67.052406,358.670868 66.603348,373.036926 
	C59.066219,373.027802 52.001671,373.050751 44.966305,372.601257 
	C44.995487,365.204010 44.995487,358.279175 44.995487,351.367096 
	C37.392651,351.367096 30.221119,351.367096 23.342222,351.367096 
	C23.342222,358.793945 23.342222,365.851868 23.342222,372.931854 
	C30.815948,372.931854 37.947601,372.931854 45.042431,373.403503 
	C45.005604,395.458618 45.005604,417.042053 45.005604,439.011841 
	C37.524151,439.011841 30.452148,439.011841 23.196287,439.011841 
	C23.196287,446.464417 23.196287,453.528107 23.196287,460.663300 
	C45.218891,460.663300 67.050751,460.663300 88.930977,460.663300 
	C88.930977,445.859222 88.930977,431.391663 89.402756,416.959412 
	C96.792076,416.994659 103.709618,416.994659 111.156807,416.994659 
	C111.156807,409.425323 111.156807,402.246490 111.156807,394.924133 
	C118.485764,394.924133 125.277374,394.924133 132.036942,395.396729 
	C132.004898,402.787659 132.004898,409.705933 132.004898,417.154480 
	C139.572006,417.154480 146.751236,417.154480 154.073425,417.154480 
	C154.073425,424.815704 154.073425,431.939148 153.601013,439.033508 
	C146.203781,439.004486 139.278961,439.004486 132.367249,439.004486 
	C132.367249,446.607483 132.367249,453.778961 132.367249,460.657654 
	C139.794220,460.657654 146.852127,460.657654 153.931549,460.657654 
	C153.931549,453.183777 153.931549,446.052094 154.403229,438.957397 
	C169.123825,438.994385 183.372757,438.994385 197.632812,438.994385 
	C197.632812,431.405029 197.632812,424.227661 197.632812,416.679077 
	C190.200241,416.679077 183.133392,416.679077 175.930954,416.679077 
	C175.930954,401.839264 175.930954,387.381714 176.402740,372.959412 
	C183.809525,372.994659 190.744553,372.994659 198.058167,372.994659 
	C198.058167,380.524139 198.058167,387.596283 198.058167,394.798981 
	C212.834076,394.798981 227.221527,394.798981 241.804276,394.798981 
	C241.804276,387.535034 241.804276,380.471985 241.804276,372.844299 
	C234.435852,372.844299 227.238235,372.844299 220.338013,372.844299 
	C220.338013,357.888489 220.338013,343.498260 220.338013,329.329315 
	C227.746582,329.329315 234.814102,329.329315 242.253204,329.329315 
	C242.253204,336.726074 242.253204,343.797485 242.253204,350.926666 
	C249.781372,350.926666 256.921936,350.926666 264.033508,351.399078 
	C264.004486,358.805359 264.004486,365.739227 264.004486,373.049011 
	C271.515503,373.049011 278.586090,373.049011 286.026886,373.049011 
	C286.026886,380.492554 286.026886,387.563202 286.026886,394.804810 
	C293.474152,394.804810 300.535645,394.804810 307.655212,394.804810 
	C307.655212,380.104492 307.655212,365.601959 307.655212,351.068542 
	C292.847137,351.068542 278.383759,351.068542 263.957367,350.596863 
	C263.994385,336.202484 263.994385,322.279755 263.994385,308.206146 
	C271.495575,308.206146 278.557709,308.206146 286.006104,308.206146 
	C286.006104,315.136902 286.006104,321.875763 286.006104,328.637024 
	C293.580322,328.637024 300.761719,328.637024 308.319824,328.637024 
	C308.319824,321.537842 308.319824,314.800140 308.319824,307.924133 
	C330.160980,307.924133 351.614990,307.924133 373.036957,308.396667 
	C373.028534,315.602509 373.052216,322.335754 372.603271,329.036957 
	C365.199890,329.004883 358.269135,329.004883 350.967041,329.004883 
	C350.967041,336.500580 350.967041,343.567719 350.967041,351.177795 
	C343.411194,351.177795 336.219757,351.177795 329.351166,351.177795 
	C329.351166,358.801300 329.351166,365.865204 329.351166,372.924133 
	C344.157867,372.924133 358.613464,372.924133 373.036957,373.396729 
	C373.026276,380.938141 373.047668,388.006989 372.597229,395.040588 
	C357.880493,395.005341 343.635590,395.005341 329.357727,395.005341 
	C329.357727,402.580597 329.357727,409.756042 329.357727,416.930939 
	C344.168915,416.930939 358.622375,416.930939 373.040588,417.402710 
	C373.005341,424.817474 373.005341,431.760437 373.005341,439.092041 
	C365.444702,439.092041 358.364777,439.092041 351.243591,439.092041 
	C351.243591,468.559753 351.243591,497.627289 351.243591,526.881042 
	C358.614014,526.881042 365.743469,526.881042 372.838013,526.850281 
	C372.803131,526.819519 372.720612,526.746460 372.850281,527.215576 
	C372.979950,534.425537 372.979950,541.166443 372.979950,548.075806 
	C357.857178,548.075806 343.394073,548.075806 328.963043,547.603149 
	C328.995117,525.782959 328.995117,504.435333 328.995117,482.716614 
	C321.572693,482.716614 314.843384,482.716614 307.926666,482.716614 
	C307.926666,475.205078 307.926666,468.071289 308.399048,460.966492 
	C315.463562,460.995514 322.055695,460.995514 328.632721,460.995514 
	C328.632721,453.391541 328.632721,446.220490 328.632721,439.343079 
	C321.537964,439.343079 314.812317,439.343079 308.068542,439.343079 
	C308.068542,446.817200 308.068542,453.948425 307.596924,461.042633 
	C300.188873,461.005615 293.252472,461.005615 285.946411,461.005615 
	C285.946411,475.857117 285.946411,490.251648 285.946411,505.018188 
	C271.178894,505.018188 256.784119,505.018188 241.840210,505.018188 
	C241.840210,519.571594 241.840210,533.756287 241.840210,548.290161 
	C219.566025,548.290161 197.847275,548.290161 176.000000,548.290161 
	C176.000000,577.771912 176.000000,606.885986 176.000000,636.000000 
	C168.979050,636.000000 161.958099,636.000000 154.468567,635.531372 
	C154.000000,584.395752 154.000000,533.728821 154.000000,483.000000 
	C102.514572,483.000000 51.757286,483.000000 1.000000,483.000000 
	C1.000000,461.312439 1.000000,439.624878 1.468611,417.468658 
	C8.838957,417.000000 15.740691,417.000000 22.661001,417.000000 
	C22.661001,409.414062 22.661001,402.260101 22.661001,395.000000 
	C15.215028,395.000000 8.107513,395.000000 1.000000,395.000000 
M220.000000,442.499451 
	C220.000000,448.596100 220.000000,454.692780 220.000000,461.174316 
	C205.025452,461.174316 190.619568,461.174316 176.286255,461.174316 
	C176.286255,468.644440 176.286255,475.716431 176.286255,483.177307 
	C183.643967,483.177307 190.719681,483.177307 198.177246,483.177307 
	C198.177246,497.977539 198.177246,512.383423 198.177246,526.712280 
	C205.647461,526.712280 212.719513,526.712280 220.177216,526.712280 
	C220.177216,512.022583 220.177216,497.616852 220.177216,482.822784 
	C227.643875,482.822784 234.719559,482.822784 242.177155,482.822784 
	C242.177155,468.022552 242.177155,453.616699 242.177155,438.822845 
	C249.643875,438.822845 256.719574,438.822845 263.710815,438.822845 
	C263.710815,431.349579 263.710815,424.277466 263.710815,417.287659 
	C249.017746,417.287659 234.615540,417.287659 220.000000,417.287659 
	C220.000000,425.549194 220.000000,433.524384 220.000000,442.499451 
z"/>
<path fill="#000000" opacity="1.000000" stroke="none" 
	d="
M328.930969,548.075806 
	C343.394073,548.075806 357.857178,548.075806 372.979950,548.075806 
	C372.979950,541.166443 372.979950,534.425537 373.346619,527.332825 
	C380.834167,526.964294 387.954987,526.947571 395.040588,527.402649 
	C395.005341,534.472351 395.005341,541.070190 395.005341,547.634399 
	C409.951111,547.634399 424.447662,547.634399 438.669922,547.634399 
	C438.669922,533.219849 438.669922,519.171875 438.669922,505.075867 
	C431.203796,505.075867 424.067383,505.075867 416.963043,504.603271 
	C416.973907,497.060577 416.952698,489.990479 417.403076,482.957367 
	C424.798065,482.994385 431.721375,482.994385 438.635559,482.994385 
	C438.635559,475.394379 438.635559,468.223602 438.635559,461.338196 
	C431.212372,461.338196 424.155487,461.338196 417.073334,461.338196 
	C417.073334,468.804962 417.073334,475.933716 416.600952,483.033508 
	C409.125458,482.960510 402.122375,482.916565 395.063843,482.414917 
	C395.008392,475.045929 395.008392,468.134552 395.008392,461.257629 
	C387.384338,461.257629 380.329041,461.257629 373.236328,461.257629 
	C373.236328,468.572937 373.236328,475.628082 373.236328,482.720276 
	C380.732697,482.720276 387.993225,482.720276 395.136414,483.216675 
	C395.035736,490.833984 395.052429,497.954926 394.597290,505.040588 
	C387.119385,505.005341 380.113220,505.005341 372.872925,505.005341 
	C372.872925,512.737732 372.872925,519.809387 372.872925,526.881042 
	C365.743469,526.881042 358.614014,526.881042 351.243591,526.881042 
	C351.243591,497.627289 351.243591,468.559753 351.243591,439.092041 
	C358.364777,439.092041 365.444702,439.092041 373.005341,439.092041 
	C373.005341,431.760437 373.005341,424.817474 373.003876,417.437195 
	C373.002411,416.999878 372.930054,417.069946 373.402191,417.037445 
	C395.603729,416.978851 417.333099,416.952759 439.033508,417.399078 
	C439.004486,424.796295 439.004486,431.721130 439.004486,438.632721 
	C446.607544,438.632721 453.778992,438.632721 460.657654,438.632721 
	C460.657654,431.205383 460.657654,424.147278 460.657654,417.068542 
	C453.183777,417.068542 446.052063,417.068542 438.957367,416.596863 
	C438.994385,401.873474 438.994385,387.621796 438.994385,372.990356 
	C446.475342,372.990356 453.542664,372.990356 461.124908,372.990356 
	C461.124908,351.119751 461.124908,329.626312 461.124908,307.926666 
	C468.786957,307.926666 475.924744,307.926666 483.033508,308.399048 
	C483.004486,315.463562 483.004486,322.055695 483.004486,328.632721 
	C490.608459,328.632721 497.779510,328.632721 504.656921,328.632721 
	C504.656921,321.537964 504.656921,314.812317 504.656921,308.068542 
	C497.182800,308.068542 490.051575,308.068542 482.957367,307.596924 
	C482.994385,300.187622 482.994385,293.249969 482.994385,286.221191 
	C497.864746,286.221191 512.257446,286.221191 527.040771,286.221191 
	C527.040771,293.504791 527.040771,300.579773 527.040771,308.031372 
	C534.161316,308.031372 540.903748,308.031372 548.012878,308.031372 
	C548.012878,322.481079 548.012878,336.544678 548.012878,350.993988 
	C555.456299,350.993988 562.531311,350.993988 570.160767,350.993988 
	C570.160767,358.567505 570.160767,365.769745 570.160767,372.640320 
	C577.802795,372.640320 584.874329,372.640320 591.654785,372.640320 
	C591.654785,357.884125 591.654785,343.488617 591.654785,328.711121 
	C584.238342,328.711121 577.166382,328.711121 569.730042,328.711121 
	C569.730042,314.257233 569.730042,300.193176 569.730042,285.748962 
	C562.277344,285.748962 555.203247,285.748962 547.931030,285.748962 
	C547.931030,278.213379 547.931030,271.068756 548.402832,263.959412 
	C563.232605,263.994659 577.590515,263.994659 592.309326,263.994659 
	C592.309326,271.789032 592.309326,278.849670 592.309326,286.000000 
	C607.121460,286.000000 621.560730,286.000000 636.000000,286.000000 
	C636.000000,300.020905 636.000000,314.041779 635.531372,328.531342 
	C628.135803,329.000000 621.208862,329.000000 613.943848,329.000000 
	C613.943848,351.203644 613.943848,372.909668 613.943848,395.172607 
	C606.417053,395.172607 599.222839,395.172607 592.318970,395.172607 
	C592.318970,417.439301 592.318970,439.144714 592.318970,461.000000 
	C607.091675,461.000000 621.545837,461.000000 636.000000,461.000000 
	C636.000000,468.020966 636.000000,475.041901 635.531372,482.531433 
	C628.169312,483.000000 621.275879,483.000000 613.930054,483.000000 
	C613.930054,490.620575 613.930054,497.845276 613.965027,505.034973 
	C614.000000,505.000000 614.069946,504.930054 613.597900,504.962555 
	C606.197876,504.995056 599.269897,504.995056 591.974060,504.995056 
	C591.974060,497.505432 591.974060,490.440826 591.974060,483.358276 
	C584.416443,483.358276 577.241516,483.358276 570.075867,483.358276 
	C570.075867,498.167389 570.075867,512.618164 569.603271,527.036926 
	C562.211670,527.004883 555.292725,527.004883 548.349976,527.004883 
	C548.349976,534.250244 548.349976,541.083374 548.349976,547.931030 
	C555.825195,547.931030 562.950562,547.931030 570.040649,548.402832 
	C570.026550,555.941650 570.047729,563.008789 569.597046,570.040649 
	C555.060608,569.977112 540.996033,569.948792 526.965820,569.957153 
	C527.000183,569.993774 527.073303,570.062622 527.039246,569.591187 
	C527.005188,562.189880 527.005188,555.260071 527.005188,548.366943 
	C512.047241,548.366943 497.551025,548.366943 482.700623,548.366943 
	C482.700623,563.114502 482.700623,577.495850 482.700623,591.924316 
	C475.203644,591.924316 468.067261,591.924316 460.965332,591.961060 
	C460.999786,591.997742 461.069946,592.069946 461.037445,591.597900 
	C461.004944,584.207825 461.004944,577.289734 461.004944,570.348633 
	C453.416107,570.348633 446.251526,570.348633 438.930054,570.348633 
	C438.930054,577.821106 438.930054,584.945557 438.965027,592.034973 
	C439.000000,592.000000 439.069946,591.930054 438.597931,591.962524 
	C431.060638,591.973328 423.995331,591.951660 416.965027,591.964966 
	C417.000000,592.000000 417.069946,592.069946 417.037445,591.597900 
	C417.004944,584.207825 417.004944,577.289734 417.004944,570.348633 
	C409.416107,570.348633 402.251526,570.348633 394.930054,570.348633 
	C394.930054,577.821106 394.930054,584.945557 394.965088,592.033813 
	C395.000122,591.997620 395.069031,591.924194 394.597229,591.959412 
	C387.200836,591.994629 380.276215,591.994629 372.988159,591.994629 
	C372.988159,584.518372 372.988159,577.457275 372.988159,569.924316 
	C358.056702,569.924316 343.493805,569.924316 328.965332,569.961060 
	C328.999817,569.997742 329.069946,570.069946 329.037415,569.597900 
	C329.026581,562.060608 329.048279,554.995361 329.034912,547.966187 
	C328.999878,548.002380 328.930969,548.075806 328.930969,548.075806 
M505.005341,417.874481 
	C505.005341,424.808746 505.005341,431.743011 505.005341,438.808167 
	C526.837708,438.808167 548.214050,438.808167 569.656433,438.808167 
	C569.656433,424.109894 569.656433,409.605896 569.656433,394.719574 
	C562.245239,394.719574 555.174866,394.719574 547.739563,394.719574 
	C547.739563,387.266022 547.739563,380.195496 547.739563,373.075836 
	C540.545776,373.075836 533.738403,373.075836 526.995117,372.130646 
	C526.995117,365.197235 526.995117,358.263824 526.995117,351.197876 
	C512.163208,351.197876 497.780273,351.197876 483.328552,351.197876 
	C483.328552,373.220306 483.328552,395.043335 483.328552,416.930939 
	C490.796387,416.930939 497.936127,416.930939 505.005341,417.874481 
M527.000000,510.498199 
	C527.000000,494.070160 527.000000,477.642151 527.000000,461.286499 
	C504.689850,461.286499 482.953644,461.286499 461.286621,461.286499 
	C461.286621,483.310364 461.286621,505.046600 461.286621,526.713257 
	C483.310608,526.713257 505.046814,526.713257 527.000000,526.713257 
	C527.000000,521.451111 527.000000,516.473938 527.000000,510.498199 
z"/>
<path fill="#FFFFFF" opacity="1.000000" stroke="none" 
	d="
M1.000000,176.000000 
	C1.000000,168.979050 1.000000,161.958099 1.468657,154.468567 
	C52.604237,154.000000 103.271164,154.000000 154.000000,154.000000 
	C154.000000,102.514603 154.000000,51.757301 154.000000,1.000000 
	C161.020950,1.000000 168.041901,1.000000 175.531433,1.468611 
	C176.000000,8.831359 176.000000,15.725495 176.000000,22.930958 
	C183.624832,22.930958 190.850342,22.930958 198.040604,23.402737 
	C198.005356,30.808807 198.005356,37.743099 198.005356,45.054825 
	C190.478775,45.054825 183.408890,45.054825 176.358337,45.054825 
	C176.358337,67.271530 176.358337,89.099380 176.358337,110.651489 
	C183.787094,110.651489 190.855103,110.651489 198.290466,110.651489 
	C198.290466,103.234993 198.290466,96.166969 198.290466,88.924080 
	C213.141037,88.924080 227.605011,88.924080 242.036942,89.396683 
	C242.004898,96.808701 242.004898,103.748116 242.004898,111.071320 
	C234.464157,111.071320 227.388367,111.071320 219.964661,111.071320 
	C219.964661,147.511337 219.964661,183.559830 219.964661,219.802826 
	C212.534058,219.802826 205.467224,219.802826 197.837616,219.802826 
	C197.837616,205.094681 197.837616,190.573090 197.837616,176.359619 
	C190.199921,176.359619 183.127167,176.359619 176.341431,176.359619 
	C176.341431,198.445206 176.341431,220.170502 176.341431,242.283142 
	C183.755112,242.283142 190.830093,242.283142 197.664551,242.283142 
	C197.664551,249.751465 197.664551,256.822937 197.664551,263.682739 
	C175.603363,263.682739 153.878601,263.682739 131.924103,263.682739 
	C131.924103,256.221283 131.924103,249.076141 132.396698,241.963058 
	C139.788651,241.995102 146.707993,241.995102 153.650604,241.995102 
	C153.650604,234.416321 153.650604,227.250534 153.650604,220.069031 
	C146.175598,220.069031 139.049881,220.069031 131.959412,219.597260 
	C131.972046,212.062897 131.949432,205.000290 132.399200,197.966599 
	C139.796371,197.995514 146.721191,197.995514 153.632645,197.995514 
	C153.632645,190.391876 153.632645,183.220734 153.632645,176.342438 
	C146.205582,176.342438 139.147690,176.342438 132.068695,176.342438 
	C132.068695,183.816422 132.068695,190.948135 131.597015,198.042755 
	C117.209747,198.005646 103.294182,198.005646 88.824997,198.005646 
	C88.824997,190.413147 88.824997,183.220947 88.824997,176.000000 
	C59.178356,176.000000 30.089178,176.000000 1.000000,176.000000 
M194.348846,154.000000 
	C195.954636,153.815384 198.129501,154.872543 198.047134,151.638992 
	C197.883057,145.198853 197.998550,138.751572 197.998550,132.240387 
	C190.451263,132.240387 183.380310,132.240387 176.243011,132.240387 
	C176.243011,139.554077 176.243011,146.625000 176.243011,154.000000 
	C182.113541,154.000000 187.746048,154.000000 194.348846,154.000000 
z"/>
<path fill="#FFFFFF" opacity="1.000000" stroke="none" 
	d="
M636.000000,285.531433 
	C621.560730,286.000000 607.121460,286.000000 592.309326,286.000000 
	C592.309326,278.849670 592.309326,271.789032 592.309326,263.994659 
	C577.590515,263.994659 563.232605,263.994659 548.437317,263.996155 
	C547.999939,263.997620 548.069946,264.069946 548.037476,263.597839 
	C548.004944,241.517532 548.004944,219.909302 548.004944,197.903625 
	C562.893188,197.903625 577.303101,197.903625 591.746826,197.903625 
	C591.746826,190.427231 591.746826,183.354919 591.746826,176.257477 
	C570.087402,176.257477 548.682007,176.257477 526.877380,176.257477 
	C526.877380,183.585953 526.877380,190.665619 526.877380,197.733765 
	C512.069031,197.733765 497.663391,197.733765 482.859863,197.733765 
	C482.859863,190.396454 482.859863,183.317993 482.859863,176.275024 
	C475.382721,176.275024 468.310669,176.275024 460.842285,176.275024 
	C460.842285,183.621658 460.842285,190.699844 460.842285,197.716187 
	C446.033447,197.716187 431.627472,197.716187 417.288147,197.716187 
	C417.288147,175.692139 417.288147,153.953094 417.288147,132.292542 
	C424.653473,132.292542 431.727661,132.292542 439.192749,132.292542 
	C439.192749,139.659027 439.192749,146.739090 439.192749,153.698654 
	C446.671631,153.698654 453.746063,153.698654 460.694305,153.698654 
	C460.694305,131.990051 460.694305,110.584053 460.694305,88.780945 
	C453.313660,88.780945 446.232697,88.780945 439.069946,88.780945 
	C439.069946,81.230316 439.069946,74.080193 439.034973,66.965027 
	C439.000000,67.000000 438.930054,67.069939 439.402100,67.037445 
	C446.795380,67.004951 453.716644,67.004951 461.000000,67.004951 
	C461.000000,44.719418 461.000000,22.859709 461.000000,1.000000 
	C468.020966,1.000000 475.041901,1.000000 482.531433,1.468657 
	C483.000000,52.604248 483.000000,103.271179 483.000000,154.000000 
	C534.485413,154.000000 585.242737,154.000000 636.000000,154.000000 
	C636.000000,161.020950 636.000000,168.041901 635.531372,175.531433 
	C628.154114,176.000000 621.245422,176.000000 613.924194,176.000000 
	C613.924194,190.986038 613.924194,205.527542 613.960938,220.034576 
	C613.997620,220.000107 614.069946,219.930054 613.597900,219.962555 
	C598.881409,219.995056 584.637024,219.995056 570.356445,219.995056 
	C570.356445,227.578293 570.356445,234.753860 570.356445,242.069946 
	C585.165100,242.069946 599.617493,242.069946 614.034973,242.034973 
	C614.000000,242.000000 613.930054,241.930054 613.962524,242.402084 
	C613.995056,249.894073 613.995056,256.914032 613.995056,264.000000 
	C621.803711,264.000000 628.901855,264.000000 636.000000,264.000000 
	C636.000000,271.020966 636.000000,278.041901 636.000000,285.531433 
z"/>
<path fill="#000000" opacity="1.000000" stroke="none" 
	d="
M153.531342,1.000000 
	C154.000000,51.757301 154.000000,102.514603 154.000000,154.000000 
	C103.271164,154.000000 52.604237,154.000000 1.468657,154.000000 
	C1.000000,103.073006 1.000000,52.146008 1.000000,1.000000 
	C51.687351,1.000000 102.375015,1.000000 153.531342,1.000000 
M132.000000,89.500000 
	C132.000000,67.405380 132.000000,45.310768 132.000000,23.286221 
	C95.357643,23.286221 59.288448,23.286221 23.286228,23.286221 
	C23.286228,59.642361 23.286228,95.711555 23.286228,131.713776 
	C59.642376,131.713776 95.711571,131.713776 132.000000,131.713776 
	C132.000000,117.785698 132.000000,104.142845 132.000000,89.500000 
z"/>
<path fill="#000000" opacity="1.000000" stroke="none" 
	d="
M1.000000,483.468658 
	C51.757286,483.000000 102.514572,483.000000 154.000000,483.000000 
	C154.000000,533.728821 154.000000,584.395752 154.000000,635.531372 
	C103.073006,636.000000 52.146008,636.000000 1.000000,636.000000 
	C1.000000,585.312622 1.000000,534.625000 1.000000,483.468658 
M23.000000,588.500000 
	C23.000000,596.931519 23.000000,605.363037 23.000000,613.712097 
	C59.645718,613.712097 95.714935,613.712097 131.712097,613.712097 
	C131.712097,577.354248 131.712097,541.285095 131.712097,505.287903 
	C95.354271,505.287903 59.285061,505.287903 23.000000,505.287903 
	C23.000000,532.883484 23.000000,560.191711 23.000000,588.500000 
z"/>
<path fill="#000000" opacity="1.000000" stroke="none" 
	d="
M636.000000,153.531342 
	C585.242737,154.000000 534.485413,154.000000 483.000000,154.000000 
	C483.000000,103.271179 483.000000,52.604248 483.000000,1.468657 
	C533.927002,1.000000 584.854004,1.000000 636.000000,1.000000 
	C636.000000,51.687351 636.000000,102.375015 636.000000,153.531342 
M523.500488,23.000000 
	C517.402588,23.000000 511.304688,23.000000 505.288025,23.000000 
	C505.288025,59.645954 505.288025,95.715187 505.288025,131.711975 
	C541.645996,131.711975 577.715210,131.711975 613.711914,131.711975 
	C613.711914,95.353989 613.711914,59.284760 613.711914,23.000000 
	C583.783081,23.000000 554.141724,23.000000 523.500488,23.000000 
z"/>
<path fill="#000000" opacity="1.000000" stroke="none" 
	d="
M307.926666,460.937500 
	C307.926666,468.071289 307.926666,475.205078 307.926666,482.716614 
	C314.843384,482.716614 321.572693,482.716614 328.995117,482.716614 
	C328.995117,504.435333 328.995117,525.782959 328.963043,547.603149 
	C328.930969,548.075806 328.999878,548.002380 328.562897,547.998718 
	C321.394257,548.021973 314.662628,548.048889 307.963043,547.603271 
	C307.995117,540.544128 307.995117,533.957520 307.995117,527.348755 
	C300.415955,527.348755 293.250916,527.348755 286.069122,527.348755 
	C286.069122,534.490173 286.069122,541.282959 285.597351,548.040527 
	C278.096283,548.005371 271.067017,548.005371 264.069122,548.005371 
	C264.069122,555.847961 264.069122,562.961792 263.597290,570.040527 
	C241.435867,570.005371 219.746277,570.005371 198.330841,570.005371 
	C198.330841,585.112244 198.330841,599.494873 198.330841,613.930908 
	C205.799484,613.930908 212.937653,613.930908 220.040604,614.402710 
	C220.003571,621.916321 220.001785,628.958130 220.000000,636.000000 
	C205.645767,636.000000 191.291550,636.000000 176.468658,636.000000 
	C176.000000,606.885986 176.000000,577.771912 176.000000,548.290161 
	C197.847275,548.290161 219.566025,548.290161 241.840210,548.290161 
	C241.840210,533.756287 241.840210,519.571594 241.840210,505.018188 
	C256.784119,505.018188 271.178894,505.018188 285.946411,505.018188 
	C285.946411,490.251648 285.946411,475.857117 285.946411,461.005615 
	C293.252472,461.005615 300.188873,461.005615 307.562561,461.005981 
	C307.999878,461.006317 307.926666,460.937500 307.926666,460.937500 
z"/>
<path fill="#000000" opacity="1.000000" stroke="none" 
	d="
M242.068985,88.924080 
	C227.605011,88.924080 213.141037,88.924080 198.290466,88.924080 
	C198.290466,96.166969 198.290466,103.234993 198.290466,110.651489 
	C190.855103,110.651489 183.787094,110.651489 176.358337,110.651489 
	C176.358337,89.099380 176.358337,67.271530 176.358337,45.054825 
	C183.408890,45.054825 190.478775,45.054825 198.005356,45.054825 
	C198.005356,37.743099 198.005356,30.808807 198.003891,23.437202 
	C198.002426,22.999887 197.930054,23.069939 198.402084,23.037445 
	C205.894089,23.004951 212.914062,23.004951 220.000000,23.004951 
	C220.000000,15.196372 220.000000,8.098186 220.000000,1.000000 
	C227.020950,1.000000 234.041901,1.000000 241.531433,1.468611 
	C242.000000,8.838956 242.000000,15.740689 242.000000,22.661003 
	C249.585953,22.661003 256.739899,22.661003 264.000000,22.661003 
	C264.000000,15.214927 264.000000,8.107463 264.000000,1.000000 
	C271.020966,1.000000 278.041901,1.000000 285.531433,1.468657 
	C285.974731,16.314562 285.949463,30.691807 285.960876,45.034584 
	C285.997589,45.000114 286.069946,44.930061 285.597839,44.962555 
	C270.767120,44.995052 256.408447,44.995052 241.930054,44.995052 
	C241.930054,60.177490 241.930054,74.623718 241.965057,89.033737 
	C242.000061,88.997528 242.068985,88.924080 242.068985,88.924080 
z"/>
<path fill="#FFFFFF" opacity="1.000000" stroke="none" 
	d="
M285.924164,45.069054 
	C285.949463,30.691807 285.974731,16.314562 286.000000,1.468657 
	C293.020966,1.000000 300.041901,1.000000 307.531433,1.468611 
	C308.000000,8.838385 308.000000,15.739548 308.000000,22.660141 
	C315.252808,22.660141 322.074585,22.660141 329.000000,22.660141 
	C329.000000,15.213768 329.000000,8.106884 329.000000,1.000000 
	C336.020966,1.000000 343.041901,1.000000 350.531433,1.468611 
	C351.000000,8.838957 351.000000,15.740691 351.000000,22.661001 
	C358.585938,22.661001 365.739899,22.661001 373.000000,22.661001 
	C373.000000,15.215028 373.000000,8.107513 373.000000,1.000000 
	C380.020966,1.000000 387.041901,1.000000 394.531433,1.468611 
	C395.000000,8.857261 395.000000,15.777299 395.000000,23.208681 
	C409.966675,23.208681 424.460693,23.208681 438.930054,23.208681 
	C438.930054,38.177128 438.930054,52.623531 438.930054,67.069939 
	C438.930054,67.069939 439.000000,67.000000 438.562897,66.997528 
	C431.060883,67.022003 423.995941,67.048965 416.963074,66.603325 
	C416.995117,59.211372 416.995117,52.292023 416.995117,45.349400 
	C409.416351,45.349400 402.250519,45.349400 395.069000,45.349400 
	C395.069000,52.824444 395.069000,59.950176 394.597229,67.040634 
	C387.194214,67.005371 380.262939,67.005371 372.958862,67.005371 
	C372.958862,59.491142 372.958862,52.424614 372.958862,45.069054 
	C343.693298,45.069054 314.808746,45.069054 285.924164,45.069054 
z"/>
<path fill="#000000" opacity="1.000000" stroke="none" 
	d="
M131.926819,197.937683 
	C131.949432,205.000290 131.972046,212.062897 131.996124,219.562805 
	C131.997574,220.000107 132.069946,219.930054 131.597931,219.962555 
	C124.429436,219.995056 117.732971,219.995056 110.930061,219.995056 
	C110.930061,227.846420 110.930061,234.958191 110.965027,242.034973 
	C111.000000,242.000000 111.069939,241.930054 110.597870,241.962555 
	C103.191391,241.995041 96.256981,241.995041 88.945320,241.995041 
	C88.945320,234.479080 88.945320,227.407669 88.945320,219.979462 
	C74.174202,219.979462 59.783989,219.979462 44.837128,219.979462 
	C44.837128,212.427780 44.837128,205.231171 44.837128,198.353348 
	C37.203640,198.353348 30.135624,198.353348 22.930061,198.353348 
	C22.930061,220.494354 22.930061,242.282150 22.965065,264.033752 
	C23.000071,263.997528 23.068987,263.924103 23.068987,263.924103 
	C16.025051,263.949402 8.981114,263.974701 1.468589,264.000000 
	C1.000000,234.979111 1.000000,205.958206 1.000000,176.468658 
	C30.089178,176.000000 59.178356,176.000000 88.824997,176.000000 
	C88.824997,183.220947 88.824997,190.413147 88.824997,198.005646 
	C103.294182,198.005646 117.209747,198.005646 131.562683,198.006073 
	C132.000031,198.006500 131.926819,197.937683 131.926819,197.937683 
z"/>
<path fill="#FFFFFF" opacity="1.000000" stroke="none" 
	d="
M460.930878,591.924316 
	C468.067261,591.924316 475.203644,591.924316 482.700623,591.924316 
	C482.700623,577.495850 482.700623,563.114502 482.700623,548.366943 
	C497.551025,548.366943 512.047241,548.366943 527.005188,548.366943 
	C527.005188,555.260071 527.005188,562.189880 526.566833,569.562073 
	C519.197083,570.004456 512.265686,570.004456 505.367279,570.004456 
	C505.367279,584.950134 505.367279,599.447632 505.367279,613.647827 
	C512.801025,613.647827 519.865540,613.647827 526.931458,613.647827 
	C526.931458,598.837280 526.931458,584.378906 526.931458,569.920532 
	C540.996033,569.948792 555.060608,569.977112 569.562622,570.003906 
	C570.000000,570.002441 569.930054,569.930054 569.962524,570.402100 
	C569.973328,577.939392 569.951721,585.004639 569.965027,592.033752 
	C570.000000,591.997559 570.068970,591.924133 569.597168,591.959351 
	C562.211975,591.994629 555.298523,591.994629 548.000000,591.994629 
	C548.000000,606.931580 548.000000,621.465759 548.000000,636.000000 
	C519.312439,636.000000 490.624878,636.000000 461.468658,635.531372 
	C460.976959,620.683228 460.953918,606.303772 460.930878,591.924316 
z"/>
<path fill="#FFFFFF" opacity="1.000000" stroke="none" 
	d="
M636.000000,460.531342 
	C621.545837,461.000000 607.091675,461.000000 592.318970,461.000000 
	C592.318970,439.144714 592.318970,417.439301 592.318970,395.172607 
	C599.222839,395.172607 606.417053,395.172607 613.943848,395.172607 
	C613.943848,372.909668 613.943848,351.203644 613.943848,329.000000 
	C621.208862,329.000000 628.135803,329.000000 635.531372,329.000000 
	C636.000000,372.687561 636.000000,416.375122 636.000000,460.531342 
z"/>
<path fill="#FFFFFF" opacity="1.000000" stroke="none" 
	d="
M220.468658,636.000000 
	C220.001785,628.958130 220.003571,621.916321 220.003876,614.437134 
	C220.002396,613.999878 219.930054,614.069946 220.402130,614.037476 
	C235.219940,614.004944 249.565674,614.004944 264.069946,614.004944 
	C264.069946,606.181274 264.069946,599.055664 264.034973,591.965027 
	C264.000000,592.000000 263.930054,592.069946 264.402130,592.037476 
	C271.903137,592.004944 278.932037,592.004944 286.069946,592.004944 
	C286.069946,584.155945 286.069946,577.042969 286.034973,569.965027 
	C286.000000,570.000000 285.930054,570.069946 286.402100,570.037476 
	C293.939423,570.026611 301.004669,570.048279 308.033783,570.034912 
	C307.997620,569.999939 307.924164,569.930969 307.959412,570.402832 
	C307.994659,585.222717 307.994659,599.570679 307.994659,614.273315 
	C300.245880,614.273315 293.192413,614.273315 286.000000,614.273315 
	C286.000000,621.758850 286.000000,628.879456 286.000000,636.000000 
	C264.312439,636.000000 242.624878,636.000000 220.468658,636.000000 
z"/>
<path fill="#FFFFFF" opacity="1.000000" stroke="none" 
	d="
M328.930878,569.924316 
	C343.493805,569.924316 358.056702,569.924316 372.988159,569.924316 
	C372.988159,577.457275 372.988159,584.518372 372.988159,591.994629 
	C380.276215,591.994629 387.200836,591.994629 394.565186,592.432007 
	C395.003235,607.246277 395.001617,621.623169 395.000000,636.000000 
	C380.645782,636.000000 366.291534,636.000000 351.468658,635.531372 
	C351.000000,620.838928 351.000000,606.615112 351.000000,591.851685 
	C343.436218,591.851685 336.253174,591.851685 328.930878,591.851685 
	C328.930878,584.180542 328.930878,577.052429 328.930878,569.924316 
z"/>
<path fill="#000000" opacity="1.000000" stroke="none" 
	d="
M328.965332,569.961060 
	C328.930878,577.052429 328.930878,584.180542 328.930878,591.851685 
	C336.253174,591.851685 343.436218,591.851685 351.000000,591.851685 
	C351.000000,606.615112 351.000000,620.838928 351.000000,635.531372 
	C329.645782,636.000000 308.291534,636.000000 286.468658,636.000000 
	C286.000000,628.879456 286.000000,621.758850 286.000000,614.273315 
	C293.192413,614.273315 300.245880,614.273315 307.994659,614.273315 
	C307.994659,599.570679 307.994659,585.222717 308.431946,570.434937 
	C315.602814,570.020081 322.336365,570.044983 329.069946,570.069946 
	C329.069946,570.069946 328.999817,569.997742 328.965332,569.961060 
z"/>
<path fill="#000000" opacity="1.000000" stroke="none" 
	d="
M439.402100,67.037445 
	C438.930054,52.623531 438.930054,38.177128 438.930054,23.208681 
	C424.460693,23.208681 409.966675,23.208681 395.000000,23.208681 
	C395.000000,15.777299 395.000000,8.857261 395.000000,1.468611 
	C416.687561,1.000000 438.375122,1.000000 460.531342,1.000000 
	C461.000000,22.859709 461.000000,44.719418 461.000000,67.004951 
	C453.716644,67.004951 446.795380,67.004951 439.402100,67.037445 
z"/>
<path fill="#000000" opacity="1.000000" stroke="none" 
	d="
M395.468658,636.000000 
	C395.001617,621.623169 395.003235,607.246277 395.036957,592.396851 
	C395.069031,591.924194 395.000122,591.997620 395.437134,592.001282 
	C402.939423,592.026611 410.004669,592.048279 417.069946,592.069946 
	C417.069946,592.069946 417.000000,592.000000 416.997528,592.437134 
	C416.995056,599.792236 416.995056,606.710327 416.995056,613.651367 
	C424.583771,613.651367 431.748688,613.651367 439.069946,613.651367 
	C439.069946,606.178772 439.069946,599.054443 439.069946,591.930054 
	C439.069946,591.930054 439.000000,592.000000 439.437073,592.002441 
	C446.939423,592.026550 454.004669,592.048218 461.069946,592.069946 
	C461.069946,592.069946 460.999786,591.997742 460.965332,591.961060 
	C460.953918,606.303772 460.976959,620.683228 461.000000,635.531372 
	C439.312439,636.000000 417.624878,636.000000 395.468658,636.000000 
z"/>
<path fill="#000000" opacity="1.000000" stroke="none" 
	d="
M636.000000,505.000000 
	C636.000000,533.687561 636.000000,562.375122 635.531372,591.531372 
	C628.018860,591.974731 620.974976,591.949463 613.965515,591.960815 
	C614.000000,591.997559 614.069946,592.069946 614.037476,591.597900 
	C614.026672,562.393860 614.048340,533.661987 614.069946,504.930054 
	C614.069946,504.930054 614.000000,505.000000 614.437073,505.002472 
	C621.916077,505.003296 628.958069,505.001648 636.000000,505.000000 
z"/>
<path fill="#FFFFFF" opacity="1.000000" stroke="none" 
	d="
M613.931030,591.924133 
	C620.974976,591.949463 628.018860,591.974731 635.531372,592.000000 
	C636.000000,606.568665 636.000000,621.137390 636.000000,636.000000 
	C628.981934,636.000000 621.959717,636.000000 614.468750,635.531372 
	C613.976990,620.683167 613.953979,606.303650 613.931030,591.924133 
z"/>
<path fill="#000000" opacity="1.000000" stroke="none" 
	d="
M613.924194,220.069046 
	C613.924194,205.527542 613.924194,190.986038 613.924194,176.000000 
	C621.245422,176.000000 628.154114,176.000000 635.531372,176.000000 
	C636.000000,190.354233 636.000000,204.708450 635.531372,219.531342 
	C628.016602,220.023010 620.970398,220.046021 613.924194,220.069046 
z"/>
<path fill="#000000" opacity="1.000000" stroke="none" 
	d="
M613.965515,591.960815 
	C613.953979,606.303650 613.976990,620.683167 614.000000,635.531372 
	C606.979065,636.000000 599.958069,636.000000 592.468567,635.531372 
	C591.974731,620.685486 591.949402,606.308228 592.396729,591.963074 
	C599.936218,592.020020 607.003052,592.044983 614.069946,592.069946 
	C614.069946,592.069946 614.000000,591.997559 613.965515,591.960815 
z"/>
<path fill="#000000" opacity="1.000000" stroke="none" 
	d="
M548.468567,636.000000 
	C548.000000,621.465759 548.000000,606.931580 548.000000,591.994629 
	C555.298523,591.994629 562.211975,591.994629 569.565186,592.432007 
	C570.003296,607.246277 570.001648,621.623169 570.000000,636.000000 
	C562.979065,636.000000 555.958069,636.000000 548.468567,636.000000 
z"/>
<path fill="#FFFFFF" opacity="1.000000" stroke="none" 
	d="
M570.468567,636.000000 
	C570.001648,621.623169 570.003296,607.246277 570.036926,592.396790 
	C570.068970,591.924133 570.000000,591.997559 570.437134,592.001282 
	C577.939453,592.026611 585.004700,592.048279 592.033752,592.034973 
	C591.997559,592.000000 591.924133,591.931030 591.924133,591.931030 
	C591.949402,606.308228 591.974731,620.685486 592.000000,635.531372 
	C584.979065,636.000000 577.958069,636.000000 570.468567,636.000000 
z"/>
<path fill="#000000" opacity="1.000000" stroke="none" 
	d="
M372.531433,1.000000 
	C373.000000,8.107513 373.000000,15.215028 373.000000,22.661001 
	C365.739899,22.661001 358.585938,22.661001 351.000000,22.661001 
	C351.000000,15.740691 351.000000,8.838957 351.000000,1.468611 
	C358.020966,1.000000 365.041901,1.000000 372.531433,1.000000 
z"/>
<path fill="#FFFFFF" opacity="1.000000" stroke="none" 
	d="
M263.531433,1.000000 
	C264.000000,8.107463 264.000000,15.214927 264.000000,22.661003 
	C256.739899,22.661003 249.585953,22.661003 242.000000,22.661003 
	C242.000000,15.740689 242.000000,8.838956 242.000000,1.468611 
	C249.020950,1.000000 256.041901,1.000000 263.531433,1.000000 
z"/>
<path fill="#000000" opacity="1.000000" stroke="none" 
	d="
M198.039139,22.965424 
	C190.850342,22.930958 183.624832,22.930958 176.000000,22.930958 
	C176.000000,15.725495 176.000000,8.831359 176.000000,1.468611 
	C183.020950,1.000000 190.041901,1.000000 197.531433,1.468587 
	C197.976685,8.981429 197.953369,16.025684 197.930054,23.069939 
	C197.930054,23.069939 198.002426,22.999887 198.039139,22.965424 
z"/>
<path fill="#FFFFFF" opacity="1.000000" stroke="none" 
	d="
M198.402084,23.037445 
	C197.953369,16.025684 197.976685,8.981429 198.000000,1.468587 
	C205.020950,1.000000 212.041901,1.000000 219.531433,1.000000 
	C220.000000,8.098186 220.000000,15.196372 220.000000,23.004951 
	C212.914062,23.004951 205.894089,23.004951 198.402084,23.037445 
z"/>
<path fill="#000000" opacity="1.000000" stroke="none" 
	d="
M1.000000,395.468567 
	C8.107513,395.000000 15.215028,395.000000 22.661001,395.000000 
	C22.661001,402.260101 22.661001,409.414062 22.661001,417.000000 
	C15.740691,417.000000 8.838957,417.000000 1.468611,417.000000 
	C1.000000,409.979034 1.000000,402.958099 1.000000,395.468567 
z"/>
<path fill="#FFFFFF" opacity="1.000000" stroke="none" 
	d="
M613.960938,220.034576 
	C620.970398,220.046021 628.016602,220.023010 635.531372,220.000000 
	C636.000000,227.020950 636.000000,234.041901 635.531372,241.531433 
	C628.018555,241.976685 620.974304,241.953369 613.930054,241.930054 
	C613.930054,241.930054 614.000000,242.000000 614.002502,241.562927 
	C614.026672,234.060577 614.048340,226.995316 614.069946,219.930054 
	C614.069946,219.930054 613.997620,220.000107 613.960938,220.034576 
z"/>
<path fill="#000000" opacity="1.000000" stroke="none" 
	d="
M613.962524,242.402084 
	C620.974304,241.953369 628.018555,241.976685 635.531372,242.000000 
	C636.000000,249.020950 636.000000,256.041901 636.000000,263.531433 
	C628.901855,264.000000 621.803711,264.000000 613.995056,264.000000 
	C613.995056,256.914032 613.995056,249.894073 613.962524,242.402084 
z"/>
<path fill="#FFFFFF" opacity="1.000000" stroke="none" 
	d="
M636.000000,504.531433 
	C628.958069,505.001648 621.916077,505.003296 614.402100,505.037445 
	C613.930054,497.845276 613.930054,490.620575 613.930054,483.000000 
	C621.275879,483.000000 628.169312,483.000000 635.531372,483.000000 
	C636.000000,490.020966 636.000000,497.041901 636.000000,504.531433 
z"/>
<path fill="#000000" opacity="1.000000" stroke="none" 
	d="
M328.531464,1.000000 
	C329.000000,8.106884 329.000000,15.213768 329.000000,22.660141 
	C322.074585,22.660141 315.252808,22.660141 308.000000,22.660141 
	C308.000000,15.739548 308.000000,8.838385 308.000000,1.468611 
	C314.687653,1.000000 321.375275,1.000000 328.531464,1.000000 
z"/>
<path fill="#000000" opacity="1.000000" stroke="none" 
	d="
M285.960876,45.034584 
	C314.808746,45.069054 343.693298,45.069054 372.958862,45.069054 
	C372.958862,52.424614 372.958862,59.491142 372.958862,67.005371 
	C380.262939,67.005371 387.194214,67.005371 394.562744,67.003922 
	C395.000061,67.002464 394.930054,66.930061 394.962555,67.402084 
	C394.995056,74.792183 394.995056,81.710251 394.995056,89.158676 
	C387.424103,89.158676 380.244720,89.158676 372.930054,89.158676 
	C372.930054,96.821182 372.930054,103.945557 372.965027,111.034973 
	C373.000000,111.000000 373.069946,110.930061 372.597809,110.962555 
	C357.862915,110.995049 343.600128,110.995049 328.978516,110.995049 
	C328.978516,140.164032 328.978516,168.879364 328.978516,197.635513 
	C321.757568,197.635513 314.905975,197.635513 307.701202,197.635513 
	C307.701202,168.556274 307.701202,139.840973 307.701202,111.316513 
	C292.941772,111.316513 278.547333,111.316513 264.073486,111.316513 
	C264.073486,118.442604 264.073486,125.252647 263.601074,132.033600 
	C256.197205,132.004501 249.265793,132.004501 242.367188,132.004501 
	C242.367188,146.950058 242.367188,161.447586 242.367188,175.647888 
	C249.800888,175.647888 256.865417,175.647888 263.931610,175.647888 
	C263.931610,160.837387 263.931610,146.378967 264.403229,131.957458 
	C271.811798,131.994385 278.748718,131.994385 286.035156,131.994385 
	C286.035156,161.512512 286.035156,190.558350 286.035156,220.158295 
	C300.569641,220.158295 314.755219,220.158295 329.291992,220.158295 
	C329.291992,242.435074 329.291992,264.155121 329.291992,286.069946 
	C344.130920,286.069946 358.600433,286.069946 373.034973,286.034973 
	C373.000000,286.000000 372.930054,285.930054 372.962585,286.402069 
	C372.973389,293.939362 372.951721,301.004669 372.965088,308.033752 
	C373.000092,307.997559 373.069031,307.924133 373.069031,307.924133 
	C351.614990,307.924133 330.160980,307.924133 308.319824,307.924133 
	C308.319824,314.800140 308.319824,321.537842 308.319824,328.637024 
	C300.761719,328.637024 293.580322,328.637024 286.006104,328.637024 
	C286.006104,321.875763 286.006104,315.136902 286.006104,308.206146 
	C278.557709,308.206146 271.495575,308.206146 263.994385,308.206146 
	C263.994385,322.279755 263.994385,336.202484 263.994019,350.562531 
	C263.993683,350.999878 264.062500,350.926666 264.062500,350.926666 
	C256.921936,350.926666 249.781372,350.926666 242.253204,350.926666 
	C242.253204,343.797485 242.253204,336.726074 242.253204,329.329315 
	C234.814102,329.329315 227.746582,329.329315 220.338013,329.329315 
	C220.338013,343.498260 220.338013,357.888489 220.338013,372.844299 
	C227.238235,372.844299 234.435852,372.844299 241.804276,372.844299 
	C241.804276,380.471985 241.804276,387.535034 241.804276,394.798981 
	C227.221527,394.798981 212.834076,394.798981 198.058167,394.798981 
	C198.058167,387.596283 198.058167,380.524139 198.058167,372.994659 
	C190.744553,372.994659 183.809525,372.994659 176.437195,372.996155 
	C175.999893,372.997620 176.069946,373.069946 176.037445,372.597839 
	C176.004944,350.787537 176.004944,329.449280 176.004944,307.920410 
	C168.194016,307.920410 161.062775,307.920410 153.965881,307.957092 
	C154.000214,307.993744 154.073425,308.062561 154.039307,307.591125 
	C154.005188,300.192078 154.005188,293.264465 154.005188,285.815369 
	C139.394318,285.815369 125.227280,285.815369 111.069939,285.815369 
	C111.069939,270.833069 111.069939,256.381561 111.069939,241.930054 
	C111.069939,241.930054 111.000000,242.000000 111.437042,242.002472 
	C118.606041,242.026611 125.337990,242.048279 132.033752,242.034943 
	C131.997543,241.999954 131.924103,241.931015 131.924103,241.931015 
	C131.924103,249.076141 131.924103,256.221283 131.924103,263.682739 
	C153.878601,263.682739 175.603363,263.682739 197.664551,263.682739 
	C197.664551,256.822937 197.664551,249.751465 197.664551,242.283142 
	C190.830093,242.283142 183.755112,242.283142 176.341431,242.283142 
	C176.341431,220.170502 176.341431,198.445206 176.341431,176.359619 
	C183.127167,176.359619 190.199921,176.359619 197.837616,176.359619 
	C197.837616,190.573090 197.837616,205.094681 197.837616,219.802826 
	C205.467224,219.802826 212.534058,219.802826 219.964661,219.802826 
	C219.964661,183.559830 219.964661,147.511337 219.964661,111.071320 
	C227.388367,111.071320 234.464157,111.071320 242.004898,111.071320 
	C242.004898,103.748116 242.004898,96.808701 242.036942,89.396683 
	C242.068985,88.924080 242.000061,88.997528 242.437134,89.001236 
	C249.798019,89.004951 256.721832,89.004951 264.184113,89.004951 
	C264.184113,81.399834 264.184113,74.214592 264.184113,66.691010 
	C271.789490,66.691010 278.848877,66.691010 286.069946,66.691010 
	C286.069946,59.190266 286.069946,52.060162 286.069946,44.930061 
	C286.069946,44.930061 285.997589,45.000114 285.960876,45.034584 
M242.874817,285.994385 
	C249.807785,285.994385 256.740753,285.994385 264.048767,285.994385 
	C264.048767,278.484467 264.048767,271.414520 264.048767,263.975159 
	C271.490753,263.975159 278.560760,263.975159 285.807129,263.975159 
	C285.807129,256.529480 285.807129,249.468567 285.807129,242.340637 
	C271.110443,242.340637 256.609222,242.340637 242.073425,242.340637 
	C242.073425,257.141632 242.073425,271.602081 241.128525,286.004486 
	C226.878708,286.004486 212.628906,286.004486 198.367279,286.004486 
	C198.367279,293.594452 198.367279,300.772064 198.367279,307.667450 
	C213.117294,307.667450 227.499176,307.667450 241.931549,307.667450 
	C241.931549,300.196899 241.931549,293.058655 242.874817,285.994385 
M242.003937,199.709351 
	C242.003937,206.457336 242.003937,213.205322 242.003937,219.635254 
	C249.802979,219.635254 256.880035,219.635254 263.631378,219.635254 
	C263.631378,212.192184 263.631378,205.115982 263.631378,197.626694 
	C256.182129,198.012421 249.119293,198.378143 242.003937,199.709351 
z"/>
<path fill="#000000" opacity="1.000000" stroke="none" 
	d="
M220.000000,441.999512 
	C220.000000,433.524384 220.000000,425.549194 220.000000,417.287659 
	C234.615540,417.287659 249.017746,417.287659 263.710815,417.287659 
	C263.710815,424.277466 263.710815,431.349579 263.710815,438.822845 
	C256.719574,438.822845 249.643875,438.822845 242.177155,438.822845 
	C242.177155,453.616699 242.177155,468.022552 242.177155,482.822784 
	C234.719559,482.822784 227.643875,482.822784 220.177216,482.822784 
	C220.177216,497.616852 220.177216,512.022583 220.177216,526.712280 
	C212.719513,526.712280 205.647461,526.712280 198.177246,526.712280 
	C198.177246,512.383423 198.177246,497.977539 198.177246,483.177307 
	C190.719681,483.177307 183.643967,483.177307 176.286255,483.177307 
	C176.286255,475.716431 176.286255,468.644440 176.286255,461.174316 
	C190.619568,461.174316 205.025452,461.174316 220.000000,461.174316 
	C220.000000,454.692780 220.000000,448.596100 220.000000,441.999512 
z"/>
<path fill="#000000" opacity="1.000000" stroke="none" 
	d="
M67.075928,373.068970 
	C67.052406,358.670868 67.028885,344.272766 67.003914,329.437317 
	C67.002464,328.999939 66.930061,329.069946 67.402084,329.037445 
	C74.902122,329.004944 81.930130,329.004944 89.069939,329.004944 
	C89.069939,321.491058 89.069939,314.710571 89.034973,307.965027 
	C89.000000,308.000000 88.930061,308.069946 89.402130,308.037445 
	C96.802521,308.004944 103.730843,308.004944 111.157051,308.004944 
	C111.157051,329.918976 111.157051,351.400146 111.157051,372.924133 
	C118.465683,372.924133 125.267334,372.924133 132.036926,373.396729 
	C131.979935,380.936188 131.954987,388.003052 131.965057,395.033752 
	C132.000061,394.997559 132.068985,394.924133 132.068985,394.924133 
	C125.277374,394.924133 118.485764,394.924133 111.156807,394.924133 
	C111.156807,402.246490 111.156807,409.425323 111.156807,416.994659 
	C103.709618,416.994659 96.792076,416.994659 89.437210,416.996124 
	C88.999886,416.997589 89.069939,417.069946 89.037445,416.597839 
	C89.004951,401.780029 89.004951,387.434326 89.004951,372.930054 
	C81.181259,372.930054 74.055656,372.930054 66.966278,372.965027 
	C67.002487,373.000031 67.075928,373.068970 67.075928,373.068970 
z"/>
<path fill="#000000" opacity="1.000000" stroke="none" 
	d="
M44.937122,373.073730 
	C52.001671,373.050751 59.066219,373.027802 66.603348,373.036926 
	C67.075928,373.068970 67.002487,373.000031 66.998764,373.437195 
	C66.995049,388.220032 66.995049,402.565735 66.995049,417.069946 
	C74.818863,417.069946 81.944397,417.069946 89.069939,417.069946 
	C89.069939,417.069946 88.999886,416.997589 88.965431,416.960876 
	C88.930977,431.391663 88.930977,445.859222 88.930977,460.663300 
	C67.050751,460.663300 45.218891,460.663300 23.196287,460.663300 
	C23.196287,453.528107 23.196287,446.464417 23.196287,439.011841 
	C30.452148,439.011841 37.524151,439.011841 45.005604,439.011841 
	C45.005604,417.042053 45.005604,395.458618 45.005760,373.437866 
	C45.005917,373.000519 44.937122,373.073730 44.937122,373.073730 
z"/>
<path fill="#000000" opacity="1.000000" stroke="none" 
	d="
M67.039185,328.965454 
	C52.616207,328.931000 38.156506,328.931000 23.348433,328.931000 
	C23.348433,322.190887 23.348433,315.457581 23.348433,308.162598 
	C30.231695,308.162598 37.427387,308.162598 44.801758,308.162598 
	C44.801758,300.543671 44.801758,293.483795 44.801758,286.040283 
	C37.576149,286.040283 30.507273,286.040283 23.004898,286.040283 
	C23.004898,278.734192 23.004898,271.801758 23.036942,264.396729 
	C23.068987,263.924103 23.000071,263.997528 23.437138,264.001221 
	C30.805853,264.004944 37.737499,264.004944 45.042458,264.004944 
	C45.042458,256.490295 45.042458,249.421738 45.042458,242.198700 
	C52.485306,242.198700 59.544872,242.198700 67.144279,242.198700 
	C67.144279,256.894470 67.144279,271.401337 67.144279,286.274048 
	C74.749199,286.274048 81.816376,286.274048 88.930061,286.274048 
	C88.930061,293.794312 88.930061,300.932129 88.930061,308.069946 
	C88.930061,308.069946 89.000000,308.000000 88.562897,307.997528 
	C81.097801,307.995056 74.069817,307.995056 66.930061,307.995056 
	C66.930061,315.508972 66.930061,322.289459 66.930061,329.069946 
	C66.930061,329.069946 67.002464,328.999939 67.039185,328.965454 
z"/>
<path fill="#000000" opacity="1.000000" stroke="none" 
	d="
M175.965424,372.960876 
	C175.930954,387.381714 175.930954,401.839264 175.930954,416.679077 
	C183.133392,416.679077 190.200241,416.679077 197.632812,416.679077 
	C197.632812,424.227661 197.632812,431.405029 197.632812,438.994385 
	C183.372757,438.994385 169.123825,438.994385 154.437561,438.994080 
	C154.000214,438.993744 154.073425,439.062561 154.073425,439.062561 
	C154.073425,431.939148 154.073425,424.815704 154.073425,417.154480 
	C146.751236,417.154480 139.572006,417.154480 132.004898,417.154480 
	C132.004898,409.705933 132.004898,402.787659 132.036942,395.396729 
	C132.068985,394.924133 132.000061,394.997559 132.437134,395.001251 
	C139.903381,395.004944 146.932541,395.004944 153.930954,395.004944 
	C153.930954,387.152008 153.930954,380.038086 154.402710,372.959412 
	C161.939636,373.019775 169.004791,373.044861 176.069946,373.069946 
	C176.069946,373.069946 175.999893,372.997620 175.965424,372.960876 
z"/>
<path fill="#000000" opacity="1.000000" stroke="none" 
	d="
M373.075867,329.069031 
	C373.052216,322.335754 373.028534,315.602509 373.036957,308.396667 
	C373.069031,307.924133 373.000092,307.997559 373.437195,308.001251 
	C388.220032,308.004944 402.565735,308.004944 417.069946,308.004944 
	C417.069946,300.181122 417.069946,293.055603 417.034912,285.966248 
	C416.999908,286.002441 416.930969,286.075867 417.402771,286.040588 
	C424.802948,286.005341 431.731384,286.005341 438.666931,286.005341 
	C438.666931,307.922394 438.666931,329.399200 438.666931,351.075867 
	C431.200165,351.075867 424.065552,351.075867 416.963043,350.603271 
	C416.995117,343.210602 416.995117,336.290558 416.995117,328.930054 
	C402.035889,328.930054 387.482971,328.930054 372.966248,328.965088 
	C373.002441,329.000092 373.075867,329.069031 373.075867,329.069031 
z"/>
<path fill="#000000" opacity="1.000000" stroke="none" 
	d="
M373.069031,372.924133 
	C358.613464,372.924133 344.157867,372.924133 329.351166,372.924133 
	C329.351166,365.865204 329.351166,358.801300 329.351166,351.177795 
	C336.219757,351.177795 343.411194,351.177795 350.967041,351.177795 
	C350.967041,343.567719 350.967041,336.500580 350.967041,329.004883 
	C358.269135,329.004883 365.199890,329.004883 372.603271,329.036957 
	C373.075867,329.069031 373.002441,329.000092 372.998749,329.437195 
	C372.973389,344.272858 372.951721,358.671417 372.965088,373.033752 
	C373.000092,372.997559 373.069031,372.924133 373.069031,372.924133 
z"/>
<path fill="#000000" opacity="1.000000" stroke="none" 
	d="
M263.957031,351.034210 
	C278.383759,351.068542 292.847137,351.068542 307.655212,351.068542 
	C307.655212,365.601959 307.655212,380.104492 307.655212,394.804810 
	C300.535645,394.804810 293.474152,394.804810 286.026886,394.804810 
	C286.026886,387.563202 286.026886,380.492554 286.026886,373.049011 
	C278.586090,373.049011 271.515503,373.049011 264.004486,373.049011 
	C264.004486,365.739227 264.004486,358.805359 264.033508,351.399078 
	C264.062500,350.926666 263.993683,350.999878 263.957031,351.034210 
z"/>
<path fill="#000000" opacity="1.000000" stroke="none" 
	d="
M373.039124,416.965393 
	C358.622375,416.930939 344.168915,416.930939 329.357727,416.930939 
	C329.357727,409.756042 329.357727,402.580597 329.357727,395.005341 
	C343.635590,395.005341 357.880493,395.005341 372.562744,395.003876 
	C373.000122,395.002411 372.930054,394.930054 372.962555,395.402069 
	C372.973389,402.939362 372.951691,410.004669 372.930054,417.069946 
	C372.930054,417.069946 373.002411,416.999878 373.039124,416.965393 
z"/>
<path fill="#000000" opacity="1.000000" stroke="none" 
	d="
M373.034607,395.039124 
	C373.047668,388.006989 373.026276,380.938141 373.036957,373.396729 
	C373.069031,372.924133 373.000092,372.997559 373.437134,373.001251 
	C380.941406,372.980286 388.008606,372.955627 395.040588,373.402710 
	C395.005341,380.903320 395.005341,387.932190 395.005341,394.930054 
	C387.155762,394.930054 380.042908,394.930054 372.930054,394.930054 
	C372.930054,394.930054 373.000122,395.002411 373.034607,395.039124 
z"/>
<path fill="#000000" opacity="1.000000" stroke="none" 
	d="
M153.965881,438.957092 
	C153.931549,446.052094 153.931549,453.183777 153.931549,460.657654 
	C146.852127,460.657654 139.794220,460.657654 132.367249,460.657654 
	C132.367249,453.778961 132.367249,446.607483 132.367249,439.004486 
	C139.278961,439.004486 146.203781,439.004486 153.601013,439.033508 
	C154.073425,439.062561 154.000214,438.993744 153.965881,438.957092 
z"/>
<path fill="#000000" opacity="1.000000" stroke="none" 
	d="
M45.042587,372.966187 
	C37.947601,372.931854 30.815948,372.931854 23.342222,372.931854 
	C23.342222,365.851868 23.342222,358.793945 23.342222,351.367096 
	C30.221119,351.367096 37.392651,351.367096 44.995487,351.367096 
	C44.995487,358.279175 44.995487,365.204010 44.966305,372.601288 
	C44.937122,373.073730 45.005917,373.000519 45.042587,372.966187 
z"/>
<path fill="#000000" opacity="1.000000" stroke="none" 
	d="
M308.034210,461.042969 
	C308.068542,453.948425 308.068542,446.817200 308.068542,439.343079 
	C314.812317,439.343079 321.537964,439.343079 328.632721,439.343079 
	C328.632721,446.220490 328.632721,453.391541 328.632721,460.995514 
	C322.055695,460.995514 315.463562,460.995514 308.399048,460.966492 
	C307.926666,460.937500 307.999878,461.006317 308.034210,461.042969 
z"/>
<path fill="#FFFFFF" opacity="1.000000" stroke="none" 
	d="
M372.962555,395.402069 
	C380.042908,394.930054 387.155762,394.930054 395.005341,394.930054 
	C395.005341,387.932190 395.005341,380.903320 395.003876,373.437195 
	C395.002411,372.999878 394.930054,373.069946 395.402100,373.037445 
	C402.903046,373.004944 409.931976,373.004944 417.069946,373.004944 
	C417.069946,365.155914 417.069946,358.042999 417.034912,350.966248 
	C416.999908,351.002441 416.930969,351.075867 416.930969,351.075867 
	C424.065552,351.075867 431.200165,351.075867 438.666931,351.075867 
	C438.666931,329.399200 438.666931,307.922394 438.666931,286.005341 
	C431.731384,286.005341 424.802948,286.005341 417.434814,285.567993 
	C416.995117,278.192810 416.995117,271.254974 416.995117,263.935150 
	C424.529938,263.935150 431.603333,263.935150 438.777008,263.935150 
	C438.777008,256.476471 438.777008,249.410919 438.777008,241.955933 
	C431.491699,241.955933 424.416931,241.955933 417.212585,241.955933 
	C417.212585,234.497864 417.212585,227.432404 417.212585,220.364304 
	C439.264557,220.364304 461.101868,220.364304 482.640900,220.364304 
	C482.640900,227.802048 482.640900,234.873398 482.640900,242.316299 
	C475.209839,242.316299 468.136322,242.316299 461.348755,242.316299 
	C461.348755,249.780975 461.348755,256.851685 461.348755,264.069946 
	C490.488220,264.069946 519.279053,264.069946 548.069946,264.069946 
	C548.069946,264.069946 547.999939,263.997620 547.965454,263.960876 
	C547.931030,271.068756 547.931030,278.213379 547.931030,285.748962 
	C555.203247,285.748962 562.277344,285.748962 569.730042,285.748962 
	C569.730042,300.193176 569.730042,314.257233 569.730042,328.711121 
	C577.166382,328.711121 584.238342,328.711121 591.654785,328.711121 
	C591.654785,343.488617 591.654785,357.884125 591.654785,372.640320 
	C584.874329,372.640320 577.802795,372.640320 570.160767,372.640320 
	C570.160767,365.769745 570.160767,358.567505 570.160767,350.993988 
	C562.531311,350.993988 555.456299,350.993988 548.012878,350.993988 
	C548.012878,336.544678 548.012878,322.481079 548.012878,308.031372 
	C540.903748,308.031372 534.161316,308.031372 527.040771,308.031372 
	C527.040771,300.579773 527.040771,293.504791 527.040771,286.221191 
	C512.257446,286.221191 497.864746,286.221191 482.994385,286.221191 
	C482.994385,293.249969 482.994385,300.187622 482.994019,307.562561 
	C482.993683,307.999878 483.062500,307.926666 483.062500,307.926666 
	C475.924744,307.926666 468.786957,307.926666 461.124908,307.926666 
	C461.124908,329.626312 461.124908,351.119751 461.124908,372.990356 
	C453.542664,372.990356 446.475342,372.990356 438.994385,372.990356 
	C438.994385,387.621796 438.994385,401.873474 438.994019,416.562531 
	C438.993683,416.999878 439.062500,416.926666 439.062500,416.926666 
	C417.333099,416.952759 395.603729,416.978851 373.402161,417.037445 
	C372.951691,410.004669 372.973389,402.939362 372.962555,395.402069 
z"/>
<path fill="#FFFFFF" opacity="1.000000" stroke="none" 
	d="
M527.000000,510.997437 
	C527.000000,516.473938 527.000000,521.451111 527.000000,526.713257 
	C505.046814,526.713257 483.310608,526.713257 461.286621,526.713257 
	C461.286621,505.046600 461.286621,483.310364 461.286621,461.286499 
	C482.953644,461.286499 504.689850,461.286499 527.000000,461.286499 
	C527.000000,477.642151 527.000000,494.070160 527.000000,510.997437 
M483.056915,504.253662 
	C490.236237,504.606995 497.415558,504.960327 504.792358,505.323364 
	C504.792358,497.519073 504.792358,490.448303 504.792358,483.210449 
	C497.513214,483.210449 490.442444,483.210449 483.003937,483.210449 
	C483.003937,490.038116 483.003937,496.662201 483.056915,504.253662 
z"/>
<path fill="#FFFFFF" opacity="1.000000" stroke="none" 
	d="
M614.037476,591.597900 
	C607.003052,592.044983 599.936218,592.020020 592.396729,591.963074 
	C591.924133,591.931030 591.997559,592.000000 592.001282,591.562866 
	C592.005005,584.096863 592.005005,577.067932 592.005005,569.930054 
	C584.155884,569.930054 577.042969,569.930054 569.930054,569.930054 
	C569.930054,569.930054 570.000000,570.002441 570.034424,570.039185 
	C570.047729,563.008789 570.026550,555.941650 570.003906,548.437256 
	C570.002441,548.000000 569.930054,548.069946 570.402100,548.037476 
	C577.791809,548.004944 584.709473,548.004944 591.650818,548.004944 
	C591.650818,540.749756 591.650818,533.917480 591.650818,526.930054 
	C584.178101,526.930054 577.054077,526.930054 569.966248,526.965027 
	C570.002441,527.000000 570.075867,527.068970 570.075867,527.068970 
	C570.075867,512.618164 570.075867,498.167389 570.075867,483.358276 
	C577.241516,483.358276 584.416443,483.358276 591.974060,483.358276 
	C591.974060,490.440826 591.974060,497.505432 591.974060,504.995056 
	C599.269897,504.995056 606.197876,504.995056 613.597900,504.962555 
	C614.048340,533.661987 614.026672,562.393860 614.037476,591.597900 
z"/>
<path fill="#FFFFFF" opacity="1.000000" stroke="none" 
	d="
M526.930969,373.075836 
	C533.738403,373.075836 540.545776,373.075836 547.739563,373.075836 
	C547.739563,380.195496 547.739563,387.266022 547.739563,394.719574 
	C555.174866,394.719574 562.245239,394.719574 569.656433,394.719574 
	C569.656433,409.605896 569.656433,424.109894 569.656433,438.808167 
	C548.214050,438.808167 526.837708,438.808167 505.005341,438.808167 
	C505.005341,431.743011 505.005341,424.808746 505.003876,417.437195 
	C505.002411,416.999878 504.930054,417.069946 505.402100,417.037415 
	C512.793396,417.004913 519.712646,417.004913 527.069946,417.004913 
	C527.069946,402.034119 527.069946,387.482086 527.034912,372.966217 
	C526.999939,373.002380 526.930969,373.075836 526.930969,373.075836 
z"/>
<path fill="#FFFFFF" opacity="1.000000" stroke="none" 
	d="
M505.039124,416.965393 
	C497.936127,416.930939 490.796387,416.930939 483.328552,416.930939 
	C483.328552,395.043335 483.328552,373.220306 483.328552,351.197876 
	C497.780273,351.197876 512.163208,351.197876 526.995117,351.197876 
	C526.995117,358.263824 526.995117,365.197235 526.963013,372.603241 
	C526.930969,373.075836 526.999939,373.002380 526.562866,372.998718 
	C519.206543,372.995056 512.287292,372.995056 504.930054,372.995056 
	C504.930054,387.965698 504.930054,402.517822 504.930054,417.069946 
	C504.930054,417.069946 505.002411,416.999878 505.039124,416.965393 
z"/>
<path fill="#FFFFFF" opacity="1.000000" stroke="none" 
	d="
M416.930969,505.075867 
	C424.067383,505.075867 431.203796,505.075867 438.669922,505.075867 
	C438.669922,519.171875 438.669922,533.219849 438.669922,547.634399 
	C424.447662,547.634399 409.951111,547.634399 395.005341,547.634399 
	C395.005341,541.070190 395.005341,534.472351 395.003845,527.437134 
	C395.002380,526.999817 394.930054,527.069946 395.402130,527.037476 
	C402.903137,527.004944 409.932037,527.004944 417.069946,527.004944 
	C417.069946,519.155945 417.069946,512.042969 417.034912,504.966248 
	C416.999908,505.002441 416.930969,505.075867 416.930969,505.075867 
z"/>
<path fill="#FFFFFF" opacity="1.000000" stroke="none" 
	d="
M395.039124,526.965332 
	C387.954987,526.947571 380.834167,526.964294 373.216980,526.863770 
	C372.720612,526.746460 372.803131,526.819519 372.838013,526.850281 
	C372.872925,519.809387 372.872925,512.737732 372.872925,505.005341 
	C380.113220,505.005341 387.119385,505.005341 394.562836,505.003845 
	C395.000153,505.002380 394.930054,504.930054 394.962585,505.402069 
	C394.973419,512.939392 394.951752,520.004639 394.930054,527.069946 
	C394.930054,527.069946 395.002380,526.999817 395.039124,526.965332 
z"/>
<path fill="#FFFFFF" opacity="1.000000" stroke="none" 
	d="
M417.037445,591.597900 
	C410.004669,592.048279 402.939423,592.026611 395.402100,592.037476 
	C394.930054,584.945557 394.930054,577.821106 394.930054,570.348633 
	C402.251526,570.348633 409.416107,570.348633 417.004944,570.348633 
	C417.004944,577.289734 417.004944,584.207825 417.037445,591.597900 
z"/>
<path fill="#FFFFFF" opacity="1.000000" stroke="none" 
	d="
M461.037445,591.597900 
	C454.004669,592.048218 446.939423,592.026550 439.402100,592.037415 
	C438.930054,584.945557 438.930054,577.821106 438.930054,570.348633 
	C446.251526,570.348633 453.416107,570.348633 461.004944,570.348633 
	C461.004944,577.289734 461.004944,584.207825 461.037445,591.597900 
z"/>
<path fill="#FFFFFF" opacity="1.000000" stroke="none" 
	d="
M438.597931,591.962524 
	C439.069946,599.054443 439.069946,606.178772 439.069946,613.651367 
	C431.748688,613.651367 424.583771,613.651367 416.995056,613.651367 
	C416.995056,606.710327 416.995056,599.792236 416.962555,592.402100 
	C423.995331,591.951660 431.060638,591.973328 438.597931,591.962524 
z"/>
<path fill="#FFFFFF" opacity="1.000000" stroke="none" 
	d="
M438.957031,417.034210 
	C446.052063,417.068542 453.183777,417.068542 460.657654,417.068542 
	C460.657654,424.147278 460.657654,431.205383 460.657654,438.632721 
	C453.778992,438.632721 446.607544,438.632721 439.004486,438.632721 
	C439.004486,431.721130 439.004486,424.796295 439.033508,417.399078 
	C439.062500,416.926666 438.993683,416.999878 438.957031,417.034210 
z"/>
<path fill="#FFFFFF" opacity="1.000000" stroke="none" 
	d="
M395.253784,482.720276 
	C387.993225,482.720276 380.732697,482.720276 373.236328,482.720276 
	C373.236328,475.628082 373.236328,468.572937 373.236328,461.257629 
	C380.329041,461.257629 387.384338,461.257629 395.008392,461.257629 
	C395.008392,468.134552 395.008392,475.045929 395.094543,482.380066 
	C395.180695,482.802826 395.253784,482.720276 395.253784,482.720276 
z"/>
<path fill="#FFFFFF" opacity="1.000000" stroke="none" 
	d="
M417.073334,483.062500 
	C417.073334,475.933716 417.073334,468.804962 417.073334,461.338196 
	C424.155487,461.338196 431.212372,461.338196 438.635559,461.338196 
	C438.635559,468.223602 438.635559,475.394379 438.635559,482.994385 
	C431.721375,482.994385 424.798065,482.994385 417.437439,482.994019 
	C417.000122,482.993683 417.073334,483.062500 417.073334,483.062500 
z"/>
<path fill="#FFFFFF" opacity="1.000000" stroke="none" 
	d="
M416.965790,482.957031 
	C416.952698,489.990479 416.973907,497.060577 416.963043,504.603271 
	C416.930969,505.075867 416.999908,505.002441 416.562866,504.998749 
	C409.060577,504.973389 401.995300,504.951721 394.930054,504.930054 
	C394.930054,504.930054 395.000153,505.002380 395.034607,505.039124 
	C395.052429,497.954926 395.035736,490.833984 395.136414,483.216675 
	C395.253784,482.720276 395.180695,482.802826 395.149963,482.837708 
	C402.122375,482.916565 409.125458,482.960510 416.600952,483.033508 
	C417.073334,483.062500 417.000122,482.993683 416.965790,482.957031 
z"/>
<path fill="#FFFFFF" opacity="1.000000" stroke="none" 
	d="
M482.957031,308.034210 
	C490.051575,308.068542 497.182800,308.068542 504.656921,308.068542 
	C504.656921,314.812317 504.656921,321.537964 504.656921,328.632721 
	C497.779510,328.632721 490.608459,328.632721 483.004486,328.632721 
	C483.004486,322.055695 483.004486,315.463562 483.033508,308.399048 
	C483.062500,307.926666 482.993683,307.999878 482.957031,308.034210 
z"/>
<path fill="#FFFFFF" opacity="1.000000" stroke="none" 
	d="
M329.037415,569.597900 
	C322.336365,570.044983 315.602814,570.020081 308.396698,569.963013 
	C307.924164,569.930969 307.997620,569.999939 308.001282,569.562866 
	C308.026581,562.060547 308.048248,554.995300 308.034912,547.966187 
	C307.999878,548.002380 307.930969,548.075806 307.930969,548.075806 
	C314.662628,548.048889 321.394257,548.021973 328.597931,547.962524 
	C329.048279,554.995361 329.026581,562.060608 329.037415,569.597900 
z"/>
<path fill="#FFFFFF" opacity="1.000000" stroke="none" 
	d="
M570.039185,547.965515 
	C562.950562,547.931030 555.825195,547.931030 548.349976,547.931030 
	C548.349976,541.083374 548.349976,534.250244 548.349976,527.004883 
	C555.292725,527.004883 562.211670,527.004883 569.603271,527.036926 
	C570.075867,527.068970 570.002441,527.000000 569.998718,527.437012 
	C569.973328,534.606018 569.951721,541.338013 569.930054,548.069946 
	C569.930054,548.069946 570.002441,548.000000 570.039185,547.965515 
z"/>
<path fill="#000000" opacity="1.000000" stroke="none" 
	d="
M193.863708,154.000000 
	C187.746048,154.000000 182.113541,154.000000 176.243011,154.000000 
	C176.243011,146.625000 176.243011,139.554077 176.243011,132.240387 
	C183.380310,132.240387 190.451263,132.240387 197.998550,132.240387 
	C197.998550,138.751572 197.883057,145.198853 198.047134,151.638992 
	C198.129501,154.872543 195.954636,153.815384 193.863708,154.000000 
z"/>
<path fill="#000000" opacity="1.000000" stroke="none" 
	d="
M132.034363,198.043182 
	C132.068695,190.948135 132.068695,183.816422 132.068695,176.342438 
	C139.147690,176.342438 146.205582,176.342438 153.632645,176.342438 
	C153.632645,183.220734 153.632645,190.391876 153.632645,197.995514 
	C146.721191,197.995514 139.796371,197.995514 132.399200,197.966599 
	C131.926819,197.937683 132.000031,198.006500 132.034363,198.043182 
z"/>
<path fill="#000000" opacity="1.000000" stroke="none" 
	d="
M131.960861,220.034576 
	C139.049881,220.069031 146.175598,220.069031 153.650604,220.069031 
	C153.650604,227.250534 153.650604,234.416321 153.650604,241.995102 
	C146.707993,241.995102 139.788651,241.995102 132.396698,241.963058 
	C131.924103,241.931015 131.997543,241.999954 132.001251,241.562897 
	C132.026627,234.060577 132.048279,226.995316 132.069946,219.930054 
	C132.069946,219.930054 131.997574,220.000107 131.960861,220.034576 
z"/>
<path fill="#000000" opacity="1.000000" stroke="none" 
	d="
M548.037476,263.597839 
	C519.279053,264.069946 490.488220,264.069946 461.348755,264.069946 
	C461.348755,256.851685 461.348755,249.780975 461.348755,242.316299 
	C468.136322,242.316299 475.209839,242.316299 482.640900,242.316299 
	C482.640900,234.873398 482.640900,227.802048 482.640900,220.364304 
	C461.101868,220.364304 439.264557,220.364304 417.212585,220.364304 
	C417.212585,227.432404 417.212585,234.497864 417.212585,241.955933 
	C424.416931,241.955933 431.491699,241.955933 438.777008,241.955933 
	C438.777008,249.410919 438.777008,256.476471 438.777008,263.935150 
	C431.603333,263.935150 424.529938,263.935150 416.995117,263.935150 
	C416.995117,271.254974 416.995117,278.192810 416.963043,285.603271 
	C416.930969,286.075867 416.999908,286.002441 416.562805,285.998749 
	C401.727142,285.973389 387.328583,285.951721 372.930054,285.930054 
	C372.930054,285.930054 373.000000,286.000000 373.002472,285.562897 
	C373.004944,278.190796 373.004944,271.255768 373.004944,263.942505 
	C380.523529,263.942505 387.595612,263.942505 394.786133,263.942505 
	C394.786133,256.490326 394.786133,249.427261 394.786133,241.814148 
	C380.068573,241.814148 365.555603,241.814148 351.331970,241.814148 
	C351.331970,219.549072 351.331970,197.836227 351.331970,175.741638 
	C358.731354,175.741638 365.802521,175.741638 372.924133,175.741638 
	C372.924133,168.213089 372.924133,161.072052 373.396729,153.963058 
	C380.788696,153.995102 387.708008,153.995102 394.650635,153.995102 
	C394.650635,146.416092 394.650635,139.250549 394.650635,132.069046 
	C387.175598,132.069046 380.049896,132.069046 372.959412,131.597321 
	C373.019775,124.393761 373.044861,117.661911 373.069946,110.930061 
	C373.069946,110.930061 373.000000,111.000000 373.437164,111.002472 
	C388.232971,111.004951 402.591614,111.004951 417.069946,111.004951 
	C417.069946,95.822495 417.069946,81.376274 417.034973,66.966278 
	C416.999969,67.002487 416.931030,67.075928 416.931030,67.075928 
	C423.995941,67.048965 431.060883,67.022003 438.597870,66.962555 
	C439.069946,74.080193 439.069946,81.230316 439.069946,88.780945 
	C446.232697,88.780945 453.313660,88.780945 460.694305,88.780945 
	C460.694305,110.584053 460.694305,131.990051 460.694305,153.698654 
	C453.746063,153.698654 446.671631,153.698654 439.192749,153.698654 
	C439.192749,146.739090 439.192749,139.659027 439.192749,132.292542 
	C431.727661,132.292542 424.653473,132.292542 417.288147,132.292542 
	C417.288147,153.953094 417.288147,175.692139 417.288147,197.716187 
	C431.627472,197.716187 446.033447,197.716187 460.842285,197.716187 
	C460.842285,190.699844 460.842285,183.621658 460.842285,176.275024 
	C468.310669,176.275024 475.382721,176.275024 482.859863,176.275024 
	C482.859863,183.317993 482.859863,190.396454 482.859863,197.733765 
	C497.663391,197.733765 512.069031,197.733765 526.877380,197.733765 
	C526.877380,190.665619 526.877380,183.585953 526.877380,176.257477 
	C548.682007,176.257477 570.087402,176.257477 591.746826,176.257477 
	C591.746826,183.354919 591.746826,190.427231 591.746826,197.903625 
	C577.303101,197.903625 562.893188,197.903625 548.004944,197.903625 
	C548.004944,219.909302 548.004944,241.517532 548.037476,263.597839 
z"/>
<path fill="#000000" opacity="1.000000" stroke="none" 
	d="
M613.597900,219.962555 
	C614.048340,226.995316 614.026672,234.060577 614.037476,241.597900 
	C599.617493,242.069946 585.165100,242.069946 570.356445,242.069946 
	C570.356445,234.753860 570.356445,227.578293 570.356445,219.995056 
	C584.637024,219.995056 598.881409,219.995056 613.597900,219.962555 
z"/>
<path fill="#FFFFFF" opacity="1.000000" stroke="none" 
	d="
M132.000000,90.000000 
	C132.000000,104.142845 132.000000,117.785698 132.000000,131.713776 
	C95.711571,131.713776 59.642376,131.713776 23.286228,131.713776 
	C23.286228,95.711555 23.286228,59.642361 23.286228,23.286221 
	C59.288448,23.286221 95.357643,23.286221 132.000000,23.286221 
	C132.000000,45.310768 132.000000,67.405380 132.000000,90.000000 
M111.000000,73.500000 
	C111.000000,64.069321 111.000000,54.638645 111.000000,45.287033 
	C88.688576,45.287033 66.952454,45.287033 45.287014,45.287033 
	C45.287014,67.311386 45.287014,89.047516 45.287014,110.713005 
	C67.311348,110.713005 89.047478,110.713005 111.000000,110.713005 
	C111.000000,98.451385 111.000000,86.475693 111.000000,73.500000 
z"/>
<path fill="#FFFFFF" opacity="1.000000" stroke="none" 
	d="
M23.000000,588.000000 
	C23.000000,560.191711 23.000000,532.883484 23.000000,505.287903 
	C59.285061,505.287903 95.354271,505.287903 131.712097,505.287903 
	C131.712097,541.285095 131.712097,577.354248 131.712097,613.712097 
	C95.714935,613.712097 59.645718,613.712097 23.000000,613.712097 
	C23.000000,605.363037 23.000000,596.931519 23.000000,588.000000 
M90.499817,527.000000 
	C75.404671,527.000000 60.309521,527.000000 45.286003,527.000000 
	C45.286003,548.976013 45.286003,570.378784 45.286003,591.713989 
	C67.309296,591.713989 89.045403,591.713989 110.714005,591.713989 
	C110.714005,570.024048 110.714005,548.621216 110.714005,527.000000 
	C104.119583,527.000000 97.809586,527.000000 90.499817,527.000000 
z"/>
<path fill="#FFFFFF" opacity="1.000000" stroke="none" 
	d="
M524.000427,23.000000 
	C554.141724,23.000000 583.783081,23.000000 613.711914,23.000000 
	C613.711914,59.284760 613.711914,95.353989 613.711914,131.711975 
	C577.715210,131.711975 541.645996,131.711975 505.288025,131.711975 
	C505.288025,95.715187 505.288025,59.645954 505.288025,23.000000 
	C511.304688,23.000000 517.402588,23.000000 524.000427,23.000000 
M555.500000,111.000000 
	C567.596130,111.000000 579.692261,111.000000 591.713562,111.000000 
	C591.713562,88.689743 591.713562,66.953651 591.713562,45.286453 
	C570.023132,45.286453 548.620300,45.286453 527.286377,45.286453 
	C527.286377,67.310196 527.286377,89.046288 527.286377,111.000000 
	C536.547424,111.000000 545.523743,111.000000 555.500000,111.000000 
z"/>
<path fill="#FFFFFF" opacity="1.000000" stroke="none" 
	d="
M220.039124,613.965393 
	C212.937653,613.930908 205.799484,613.930908 198.330841,613.930908 
	C198.330841,599.494873 198.330841,585.112244 198.330841,570.005371 
	C219.746277,570.005371 241.435867,570.005371 263.562805,570.003784 
	C264.000183,570.002258 263.930054,569.930054 263.962585,570.402100 
	C263.973419,577.939392 263.951752,585.004639 263.930054,592.069946 
	C263.930054,592.069946 264.000000,592.000000 263.562836,591.997559 
	C248.779953,591.995056 234.434250,591.995056 219.930054,591.995056 
	C219.930054,599.818848 219.930054,606.944397 219.930054,614.069946 
	C219.930054,614.069946 220.002396,613.999878 220.039124,613.965393 
z"/>
<path fill="#FFFFFF" opacity="1.000000" stroke="none" 
	d="
M264.034668,570.038940 
	C264.069122,562.961792 264.069122,555.847961 264.069122,548.005371 
	C271.067017,548.005371 278.096283,548.005371 285.562866,548.003784 
	C286.000183,548.002258 285.930054,547.930054 285.962585,548.402100 
	C285.973419,555.939392 285.951752,563.004639 285.930054,570.069946 
	C285.930054,570.069946 286.000000,570.000000 285.562927,569.997559 
	C278.060577,569.973389 270.995331,569.951721 263.930054,569.930054 
	C263.930054,569.930054 264.000183,570.002258 264.034668,570.038940 
z"/>
<path fill="#FFFFFF" opacity="1.000000" stroke="none" 
	d="
M286.034668,548.038940 
	C286.069122,541.282959 286.069122,534.490173 286.069122,527.348755 
	C293.250916,527.348755 300.415955,527.348755 307.995117,527.348755 
	C307.995117,533.957520 307.995117,540.544128 307.963043,547.603271 
	C307.930969,548.075806 307.999878,548.002380 307.562866,547.998718 
	C300.060577,547.973389 292.995331,547.951721 285.930054,547.930054 
	C285.930054,547.930054 286.000183,548.002258 286.034668,548.038940 
z"/>
<path fill="#FFFFFF" opacity="1.000000" stroke="none" 
	d="
M285.597839,44.962555 
	C286.069946,52.060162 286.069946,59.190266 286.069946,66.691010 
	C278.848877,66.691010 271.789490,66.691010 264.184113,66.691010 
	C264.184113,74.214592 264.184113,81.399834 264.184113,89.004951 
	C256.721832,89.004951 249.798019,89.004951 242.402130,89.037445 
	C241.930054,74.623718 241.930054,60.177490 241.930054,44.995052 
	C256.408447,44.995052 270.767120,44.995052 285.597839,44.962555 
z"/>
<path fill="#000000" opacity="1.000000" stroke="none" 
	d="
M395.034546,67.039185 
	C395.069000,59.950176 395.069000,52.824444 395.069000,45.349400 
	C402.250519,45.349400 409.416351,45.349400 416.995117,45.349400 
	C416.995117,52.292023 416.995117,59.211372 416.963074,66.603325 
	C416.931030,67.075928 416.999969,67.002487 416.562897,66.998764 
	C409.060577,66.973389 401.995300,66.951721 394.930054,66.930061 
	C394.930054,66.930061 395.000061,67.002464 395.034546,67.039185 
z"/>
<path fill="#FFFFFF" opacity="1.000000" stroke="none" 
	d="
M176.037445,372.597839 
	C169.004791,373.044861 161.939636,373.019775 154.437195,372.996155 
	C153.999893,372.997620 154.069946,373.069946 154.037445,372.597900 
	C154.004944,365.207825 154.004944,358.289764 154.004944,351.348572 
	C146.416260,351.348572 139.251328,351.348572 131.930054,351.348572 
	C131.930054,358.821075 131.930054,365.945526 131.965057,373.033752 
	C132.000061,372.997559 132.068985,372.924133 132.068985,372.924133 
	C125.267334,372.924133 118.465683,372.924133 111.157051,372.924133 
	C111.157051,351.400146 111.157051,329.918976 111.157051,308.004944 
	C103.730843,308.004944 96.802521,308.004944 89.402130,308.037445 
	C88.930061,300.932129 88.930061,293.794312 88.930061,286.274048 
	C81.816376,286.274048 74.749199,286.274048 67.144279,286.274048 
	C67.144279,271.401337 67.144279,256.894470 67.144279,242.198700 
	C59.544872,242.198700 52.485306,242.198700 45.042458,242.198700 
	C45.042458,249.421738 45.042458,256.490295 45.042458,264.004944 
	C37.737499,264.004944 30.805853,264.004944 23.402134,264.037445 
	C22.930061,242.282150 22.930061,220.494354 22.930061,198.353348 
	C30.135624,198.353348 37.203640,198.353348 44.837128,198.353348 
	C44.837128,205.231171 44.837128,212.427780 44.837128,219.979462 
	C59.783989,219.979462 74.174202,219.979462 88.945320,219.979462 
	C88.945320,227.407669 88.945320,234.479080 88.945320,241.995041 
	C96.256981,241.995041 103.191391,241.995041 110.597870,241.962555 
	C111.069939,256.381561 111.069939,270.833069 111.069939,285.815369 
	C125.227280,285.815369 139.394318,285.815369 154.005188,285.815369 
	C154.005188,293.264465 154.005188,300.192078 153.566895,307.562073 
	C146.204254,308.004486 139.279892,308.004486 132.367249,308.004486 
	C132.367249,315.273651 132.367249,322.112213 132.367249,328.658386 
	C139.793762,328.658386 146.851212,328.658386 153.931549,328.658386 
	C153.931549,321.518127 153.931549,314.719269 153.931549,307.920410 
	C161.062775,307.920410 168.194016,307.920410 176.004944,307.920410 
	C176.004944,329.449280 176.004944,350.787537 176.037445,372.597839 
z"/>
<path fill="#FFFFFF" opacity="1.000000" stroke="none" 
	d="
M131.597931,219.962555 
	C132.048279,226.995316 132.026627,234.060577 132.037445,241.597900 
	C125.337990,242.048279 118.606041,242.026611 111.402069,242.037445 
	C110.930061,234.958191 110.930061,227.846420 110.930061,219.995056 
	C117.732971,219.995056 124.429436,219.995056 131.597931,219.962555 
z"/>
<path fill="#000000" opacity="1.000000" stroke="none" 
	d="
M526.965820,569.957153 
	C526.931458,584.378906 526.931458,598.837280 526.931458,613.647827 
	C519.865540,613.647827 512.801025,613.647827 505.367279,613.647827 
	C505.367279,599.447632 505.367279,584.950134 505.367279,570.004456 
	C512.265686,570.004456 519.197083,570.004456 526.600891,570.033569 
	C527.073303,570.062622 527.000183,569.993774 526.965820,569.957153 
z"/>
<path fill="#000000" opacity="1.000000" stroke="none" 
	d="
M569.962524,570.402100 
	C577.042969,569.930054 584.155884,569.930054 592.005005,569.930054 
	C592.005005,577.067932 592.005005,584.096863 592.037476,591.597900 
	C585.004700,592.048279 577.939453,592.026611 570.402100,592.037476 
	C569.951721,585.004639 569.973328,577.939392 569.962524,570.402100 
z"/>
<path fill="#000000" opacity="1.000000" stroke="none" 
	d="
M220.402130,614.037476 
	C219.930054,606.944397 219.930054,599.818848 219.930054,591.995056 
	C234.434250,591.995056 248.779953,591.995056 263.597809,591.962524 
	C264.069946,599.055664 264.069946,606.181274 264.069946,614.004944 
	C249.565674,614.004944 235.219940,614.004944 220.402130,614.037476 
z"/>
<path fill="#000000" opacity="1.000000" stroke="none" 
	d="
M285.962585,548.402100 
	C292.995331,547.951721 300.060577,547.973389 307.597900,547.962524 
	C308.048248,554.995300 308.026581,562.060547 308.037415,569.597900 
	C301.004669,570.048279 293.939423,570.026611 286.402100,570.037476 
	C285.951752,563.004639 285.973419,555.939392 285.962585,548.402100 
z"/>
<path fill="#000000" opacity="1.000000" stroke="none" 
	d="
M263.962585,570.402100 
	C270.995331,569.951721 278.060577,569.973389 285.597900,569.962524 
	C286.069946,577.042969 286.069946,584.155945 286.069946,592.004944 
	C278.932037,592.004944 271.903137,592.004944 264.402130,592.037476 
	C263.951752,585.004639 263.973419,577.939392 263.962585,570.402100 
z"/>
<path fill="#FFFFFF" opacity="1.000000" stroke="none" 
	d="
M372.924133,153.931015 
	C372.924133,161.072052 372.924133,168.213089 372.924133,175.741638 
	C365.802521,175.741638 358.731354,175.741638 351.331970,175.741638 
	C351.331970,197.836227 351.331970,219.549072 351.331970,241.814148 
	C365.555603,241.814148 380.068573,241.814148 394.786133,241.814148 
	C394.786133,249.427261 394.786133,256.490326 394.786133,263.942505 
	C387.595612,263.942505 380.523529,263.942505 373.004944,263.942505 
	C373.004944,271.255768 373.004944,278.190796 373.037445,285.597870 
	C358.600433,286.069946 344.130920,286.069946 329.291992,286.069946 
	C329.291992,264.155121 329.291992,242.435074 329.291992,220.158295 
	C314.755219,220.158295 300.569641,220.158295 286.035156,220.158295 
	C286.035156,190.558350 286.035156,161.512512 286.035156,131.994385 
	C278.748718,131.994385 271.811798,131.994385 264.437561,131.994141 
	C264.000275,131.993896 264.073486,132.062698 264.073486,132.062698 
	C264.073486,125.252647 264.073486,118.442604 264.073486,111.316513 
	C278.547333,111.316513 292.941772,111.316513 307.701202,111.316513 
	C307.701202,139.840973 307.701202,168.556274 307.701202,197.635513 
	C314.905975,197.635513 321.757568,197.635513 328.978516,197.635513 
	C328.978516,168.879364 328.978516,140.164032 328.978516,110.995049 
	C343.600128,110.995049 357.862915,110.995049 372.597839,110.962555 
	C373.044861,117.661911 373.019775,124.393761 372.996155,131.562866 
	C372.997620,132.000107 373.069946,131.930054 372.597900,131.962555 
	C365.207825,131.995056 358.289764,131.995056 351.348572,131.995056 
	C351.348572,139.583740 351.348572,146.748672 351.348572,154.069946 
	C358.821075,154.069946 365.945526,154.069946 373.033752,154.034943 
	C372.997559,153.999939 372.924133,153.931015 372.924133,153.931015 
z"/>
<path fill="#FFFFFF" opacity="1.000000" stroke="none" 
	d="
M394.962555,67.402084 
	C401.995300,66.951721 409.060577,66.973389 416.597900,66.962555 
	C417.069946,81.376274 417.069946,95.822495 417.069946,111.004951 
	C402.591614,111.004951 388.232971,111.004951 373.402191,111.037445 
	C372.930054,103.945557 372.930054,96.821182 372.930054,89.158676 
	C380.244720,89.158676 387.424103,89.158676 394.995056,89.158676 
	C394.995056,81.710251 394.995056,74.792183 394.962555,67.402084 
z"/>
<path fill="#FFFFFF" opacity="1.000000" stroke="none" 
	d="
M242.073425,286.062561 
	C242.073425,271.602081 242.073425,257.141632 242.073425,242.340637 
	C256.609222,242.340637 271.110443,242.340637 285.807129,242.340637 
	C285.807129,249.468567 285.807129,256.529480 285.807129,263.975159 
	C278.560760,263.975159 271.490753,263.975159 264.048767,263.975159 
	C264.048767,271.414520 264.048767,278.484467 264.048767,285.994385 
	C256.740753,285.994385 249.807785,285.994385 242.437515,285.994080 
	C242.000214,285.993744 242.073425,286.062561 242.073425,286.062561 
z"/>
<path fill="#FFFFFF" opacity="1.000000" stroke="none" 
	d="
M263.965942,131.957214 
	C263.931610,146.378967 263.931610,160.837387 263.931610,175.647888 
	C256.865417,175.647888 249.800888,175.647888 242.367188,175.647888 
	C242.367188,161.447586 242.367188,146.950058 242.367188,132.004501 
	C249.265793,132.004501 256.197205,132.004501 263.601074,132.033600 
	C264.073486,132.062698 264.000275,131.993896 263.965942,131.957214 
z"/>
<path fill="#FFFFFF" opacity="1.000000" stroke="none" 
	d="
M372.962585,286.402069 
	C387.328583,285.951721 401.727142,285.973389 416.597809,285.962555 
	C417.069946,293.055603 417.069946,300.181122 417.069946,308.004944 
	C402.565735,308.004944 388.220032,308.004944 373.402191,308.037445 
	C372.951721,301.004669 372.973389,293.939362 372.962585,286.402069 
z"/>
<path fill="#FFFFFF" opacity="1.000000" stroke="none" 
	d="
M241.965881,285.957092 
	C241.931549,293.058655 241.931549,300.196899 241.931549,307.667450 
	C227.499176,307.667450 213.117294,307.667450 198.367279,307.667450 
	C198.367279,300.772064 198.367279,293.594452 198.367279,286.004486 
	C212.628906,286.004486 226.878708,286.004486 241.600983,286.033508 
	C242.073425,286.062561 242.000214,285.993744 241.965881,285.957092 
z"/>
<path fill="#FFFFFF" opacity="1.000000" stroke="none" 
	d="
M242.030212,199.226593 
	C249.119293,198.378143 256.182129,198.012421 263.631378,197.626694 
	C263.631378,205.115982 263.631378,212.192184 263.631378,219.635254 
	C256.880035,219.635254 249.802979,219.635254 242.003937,219.635254 
	C242.003937,213.205322 242.003937,206.457336 242.030212,199.226593 
z"/>
<path fill="#FFFFFF" opacity="1.000000" stroke="none" 
	d="
M89.037445,416.597839 
	C81.944397,417.069946 74.818863,417.069946 66.995049,417.069946 
	C66.995049,402.565735 66.995049,388.220032 66.962555,373.402191 
	C74.055656,372.930054 81.181259,372.930054 89.004951,372.930054 
	C89.004951,387.434326 89.004951,401.780029 89.037445,416.597839 
z"/>
<path fill="#FFFFFF" opacity="1.000000" stroke="none" 
	d="
M153.965424,372.960876 
	C153.930954,380.038086 153.930954,387.152008 153.930954,395.004944 
	C146.932541,395.004944 139.903381,395.004944 132.402130,395.037445 
	C131.954987,388.003052 131.979935,380.936188 132.036926,373.396729 
	C132.068985,372.924133 132.000061,372.997559 132.437103,373.001221 
	C139.939423,373.026581 147.004684,373.048248 154.069946,373.069946 
	C154.069946,373.069946 153.999893,372.997620 153.965424,372.960876 
z"/>
<path fill="#FFFFFF" opacity="1.000000" stroke="none" 
	d="
M67.402084,329.037445 
	C66.930061,322.289459 66.930061,315.508972 66.930061,307.995056 
	C74.069817,307.995056 81.097801,307.995056 88.597870,307.962555 
	C89.069939,314.710571 89.069939,321.491058 89.069939,329.004944 
	C81.930130,329.004944 74.902122,329.004944 67.402084,329.037445 
z"/>
<path fill="#FFFFFF" opacity="1.000000" stroke="none" 
	d="
M395.039124,372.965393 
	C388.008606,372.955627 380.941406,372.980286 373.402100,373.037445 
	C372.951721,358.671417 372.973389,344.272858 372.962555,329.402191 
	C387.482971,328.930054 402.035889,328.930054 416.995117,328.930054 
	C416.995117,336.290558 416.995117,343.210602 416.963043,350.603271 
	C416.930969,351.075867 416.999908,351.002441 416.562866,350.998749 
	C409.096863,350.995056 402.067932,350.995056 394.930054,350.995056 
	C394.930054,358.844055 394.930054,365.957001 394.930054,373.069946 
	C394.930054,373.069946 395.002411,372.999878 395.039124,372.965393 
z"/>
<path fill="#000000" opacity="1.000000" stroke="none" 
	d="
M395.402100,373.037445 
	C394.930054,365.957001 394.930054,358.844055 394.930054,350.995056 
	C402.067932,350.995056 409.096863,350.995056 416.597870,350.962555 
	C417.069946,358.042999 417.069946,365.155914 417.069946,373.004944 
	C409.931976,373.004944 402.903046,373.004944 395.402100,373.037445 
z"/>
<path fill="#000000" opacity="1.000000" stroke="none" 
	d="
M483.030426,503.769958 
	C483.003937,496.662201 483.003937,490.038116 483.003937,483.210449 
	C490.442444,483.210449 497.513214,483.210449 504.792358,483.210449 
	C504.792358,490.448303 504.792358,497.519073 504.792358,505.323364 
	C497.415558,504.960327 490.236237,504.606995 483.030426,503.769958 
z"/>
<path fill="#000000" opacity="1.000000" stroke="none" 
	d="
M570.402100,548.037476 
	C569.951721,541.338013 569.973328,534.606018 569.962524,527.402100 
	C577.054077,526.930054 584.178101,526.930054 591.650818,526.930054 
	C591.650818,533.917480 591.650818,540.749756 591.650818,548.004944 
	C584.709473,548.004944 577.791809,548.004944 570.402100,548.037476 
z"/>
<path fill="#000000" opacity="1.000000" stroke="none" 
	d="
M505.402100,417.037415 
	C504.930054,402.517822 504.930054,387.965698 504.930054,372.995056 
	C512.287292,372.995056 519.206543,372.995056 526.597900,372.962555 
	C527.069946,387.482086 527.069946,402.034119 527.069946,417.004913 
	C519.712646,417.004913 512.793396,417.004913 505.402100,417.037415 
z"/>
<path fill="#000000" opacity="1.000000" stroke="none" 
	d="
M394.962585,505.402069 
	C401.995300,504.951721 409.060577,504.973389 416.597900,504.962555 
	C417.069946,512.042969 417.069946,519.155945 417.069946,527.004944 
	C409.932037,527.004944 402.903137,527.004944 395.402130,527.037476 
	C394.951752,520.004639 394.973419,512.939392 394.962585,505.402069 
z"/>
<path fill="#FFFFFF" opacity="1.000000" stroke="none" 
	d="
M372.960876,132.034576 
	C380.049896,132.069046 387.175598,132.069046 394.650635,132.069046 
	C394.650635,139.250549 394.650635,146.416092 394.650635,153.995102 
	C387.708008,153.995102 380.788696,153.995102 373.396729,153.963058 
	C372.924133,153.931015 372.997559,153.999939 373.001251,153.562897 
	C373.026611,146.060577 373.048279,138.995316 373.069946,131.930054 
	C373.069946,131.930054 372.997620,132.000107 372.960876,132.034576 
z"/>
<path fill="#000000" opacity="1.000000" stroke="none" 
	d="
M111.000000,74.000000 
	C111.000000,86.475693 111.000000,98.451385 111.000000,110.713005 
	C89.047478,110.713005 67.311348,110.713005 45.287014,110.713005 
	C45.287014,89.047516 45.287014,67.311386 45.287014,45.287033 
	C66.952454,45.287033 88.688576,45.287033 111.000000,45.287033 
	C111.000000,54.638645 111.000000,64.069321 111.000000,74.000000 
z"/>
<path fill="#000000" opacity="1.000000" stroke="none" 
	d="
M90.999695,527.000000 
	C97.809586,527.000000 104.119583,527.000000 110.714005,527.000000 
	C110.714005,548.621216 110.714005,570.024048 110.714005,591.713989 
	C89.045403,591.713989 67.309296,591.713989 45.286003,591.713989 
	C45.286003,570.378784 45.286003,548.976013 45.286003,527.000000 
	C60.309521,527.000000 75.404671,527.000000 90.999695,527.000000 
z"/>
<path fill="#000000" opacity="1.000000" stroke="none" 
	d="
M555.000000,111.000000 
	C545.523743,111.000000 536.547424,111.000000 527.286377,111.000000 
	C527.286377,89.046288 527.286377,67.310196 527.286377,45.286453 
	C548.620300,45.286453 570.023132,45.286453 591.713562,45.286453 
	C591.713562,66.953651 591.713562,88.689743 591.713562,111.000000 
	C579.692261,111.000000 567.596130,111.000000 555.000000,111.000000 
z"/>
<path fill="#000000" opacity="1.000000" stroke="none" 
	d="
M154.037445,372.597900 
	C147.004684,373.048248 139.939423,373.026581 132.402100,373.037415 
	C131.930054,365.945526 131.930054,358.821075 131.930054,351.348572 
	C139.251328,351.348572 146.416260,351.348572 154.004944,351.348572 
	C154.004944,358.289764 154.004944,365.207825 154.037445,372.597900 
z"/>
<path fill="#000000" opacity="1.000000" stroke="none" 
	d="
M153.965881,307.957092 
	C153.931549,314.719269 153.931549,321.518127 153.931549,328.658386 
	C146.851212,328.658386 139.793762,328.658386 132.367249,328.658386 
	C132.367249,322.112213 132.367249,315.273651 132.367249,308.004486 
	C139.279892,308.004486 146.204254,308.004486 153.601013,308.033508 
	C154.073425,308.062561 154.000214,307.993744 153.965881,307.957092 
z"/>
<path fill="#000000" opacity="1.000000" stroke="none" 
	d="
M372.597900,131.962555 
	C373.048279,138.995316 373.026611,146.060577 373.037445,153.597900 
	C365.945526,154.069946 358.821075,154.069946 351.348572,154.069946 
	C351.348572,146.748672 351.348572,139.583740 351.348572,131.995056 
	C358.289764,131.995056 365.207825,131.995056 372.597900,131.962555 
z"/>
</svg>