<svg width="19" height="18" viewBox="0 0 19 18" fill="none" xmlns="http://www.w3.org/2000/svg">
<g id="icon" clip-path="url(#clip0_475_1578)">
<path id="Vector" fill-rule="evenodd" clip-rule="evenodd" d="M18.14 9.20444C18.14 8.56626 18.0827 7.95262 17.9764 7.36353H9.5V10.8449H14.3436C14.135 11.9699 13.5009 12.9231 12.5477 13.5613V15.8194H15.4564C17.1582 14.2526 18.14 11.9454 18.14 9.20444Z" fill="#4285F4"/>
<path id="Vector_2" fill-rule="evenodd" clip-rule="evenodd" d="M9.49976 18C11.9298 18 13.9671 17.1941 15.4562 15.8195L12.5475 13.5614C11.7416 14.1014 10.7107 14.4205 9.49976 14.4205C7.15567 14.4205 5.17158 12.8373 4.46385 10.71H1.45703V13.0418C2.93794 15.9832 5.98158 18 9.49976 18Z" fill="#34A853"/>
<path id="Vector_3" fill-rule="evenodd" clip-rule="evenodd" d="M4.46409 10.7101C4.28409 10.1701 4.18182 9.59325 4.18182 9.00007C4.18182 8.40689 4.28409 7.83007 4.46409 7.29007V4.95825H1.45727C0.847727 6.17325 0.5 7.5478 0.5 9.00007C0.5 10.4524 0.847727 11.8269 1.45727 13.0419L4.46409 10.7101Z" fill="#FBBC05"/>
<path id="Vector_4" fill-rule="evenodd" clip-rule="evenodd" d="M9.49976 3.57955C10.8212 3.57955 12.0075 4.03364 12.9403 4.92545L15.5216 2.34409C13.963 0.891818 11.9257 0 9.49976 0C5.98158 0 2.93794 2.01682 1.45703 4.95818L4.46385 7.29C5.17158 5.16273 7.15567 3.57955 9.49976 3.57955Z" fill="#EA4335"/>
</g>
<defs>
<clipPath id="clip0_475_1578">
<rect width="18" height="18" fill="white" transform="translate(0.5)"/>
</clipPath>
</defs>
</svg>
